<svg width="32" height="32" viewBox="0 0 32 32" fill="none" xmlns="http://www.w3.org/2000/svg">
<path d="M31.4999 15.9999C31.5073 18.4899 30.699 20.9138 29.1987 22.9011C28.9568 23.2109 28.6029 23.4134 28.2132 23.465C27.8235 23.5166 27.4292 23.4132 27.115 23.177C26.8008 22.9407 26.5919 22.5906 26.5332 22.2019C26.4745 21.8132 26.5707 21.4171 26.8012 21.0986C27.609 20.021 28.1491 18.7669 28.3772 17.4396C28.6052 16.1123 28.5146 14.7499 28.1129 13.4645C27.7111 12.179 27.0096 11.0075 26.0663 10.0464C25.123 9.0852 23.9648 8.36195 22.6871 7.9362C21.4094 7.51045 20.0489 7.39439 18.7176 7.59757C17.3862 7.80075 16.1222 8.31736 15.0297 9.10484C13.9372 9.89231 13.0475 10.9281 12.4338 12.1269C11.8201 13.3257 11.5 14.6531 11.4999 15.9999C11.4999 16.3977 11.3419 16.7792 11.0606 17.0605C10.7793 17.3418 10.3978 17.4999 9.99994 17.4999C9.60212 17.4999 9.22059 17.3418 8.93928 17.0605C8.65798 16.7792 8.49994 16.3977 8.49994 15.9999C8.49922 15.159 8.59102 14.3206 8.77369 13.4999C7.315 13.5299 5.92797 14.1381 4.91774 15.1908C3.9075 16.2434 3.35681 17.6543 3.38682 19.113C3.41682 20.5717 4.02506 21.9587 5.07772 22.9689C6.13039 23.9792 7.54125 24.5299 8.99994 24.4999H11.9999C12.3978 24.4999 12.7793 24.6579 13.0606 24.9392C13.3419 25.2205 13.4999 25.602 13.4999 25.9999C13.4999 26.3977 13.3419 26.7792 13.0606 27.0605C12.7793 27.3418 12.3978 27.4999 11.9999 27.4999H8.99994C7.84594 27.5013 6.70373 27.2677 5.64293 26.8133C4.58213 26.359 3.62495 25.6934 2.82974 24.8571C2.03453 24.0208 1.41793 23.0314 1.01754 21.9491C0.617137 20.8667 0.44132 19.7142 0.500801 18.5618C0.560281 17.4093 0.853812 16.281 1.36351 15.2456C1.8732 14.2103 2.58838 13.2896 3.46546 12.5396C4.34254 11.7896 5.36315 11.2261 6.46509 10.8834C7.56703 10.5406 8.72721 10.4259 9.87494 10.5461C11.0892 8.29154 13.0211 6.50673 15.3647 5.47457C17.7082 4.44242 20.3291 4.22197 22.8121 4.84818C25.2951 5.47438 27.4981 6.91141 29.0719 8.93148C30.6456 10.9516 31.5001 13.4391 31.4999 15.9999ZM20.0612 14.9386C19.9218 14.7988 19.7562 14.6878 19.5739 14.6121C19.3916 14.5364 19.1961 14.4974 18.9987 14.4974C18.8013 14.4974 18.6058 14.5364 18.4235 14.6121C18.2411 14.6878 18.0755 14.7988 17.9362 14.9386L13.9362 18.9386C13.7967 19.0781 13.686 19.2438 13.6105 19.4261C13.535 19.6084 13.4961 19.8038 13.4961 20.0011C13.4961 20.1984 13.535 20.3938 13.6105 20.5761C13.686 20.7584 13.7967 20.9241 13.9362 21.0636C14.0757 21.2031 14.2414 21.3138 14.4237 21.3893C14.606 21.4648 14.8014 21.5037 14.9987 21.5037C15.196 21.5037 15.3914 21.4648 15.5737 21.3893C15.756 21.3138 15.9217 21.2031 16.0612 21.0636L17.4999 19.6249V25.9999C17.4999 26.3977 17.658 26.7792 17.9393 27.0605C18.2206 27.3418 18.6021 27.4999 18.9999 27.4999C19.3978 27.4999 19.7793 27.3418 20.0606 27.0605C20.3419 26.7792 20.4999 26.3977 20.4999 25.9999V19.6249L21.9387 21.0649C22.2205 21.3466 22.6027 21.505 23.0012 21.505C23.3997 21.505 23.7819 21.3466 24.0637 21.0649C24.3455 20.7831 24.5038 20.4009 24.5038 20.0024C24.5038 19.6038 24.3455 19.2217 24.0637 18.9399L20.0612 14.9386Z" fill="#A2A2A2"/>
</svg>
