<?xml version="1.0" encoding="UTF-8"?>
<svg version="1.1" xmlns="http://www.w3.org/2000/svg" width="327" height="154">
<path d="M0 0 C107.91 0 215.82 0 327 0 C327 50.82 327 101.64 327 154 C219.09 154 111.18 154 0 154 C0 103.18 0 52.36 0 0 Z " fill="#FEFEFE" transform="translate(0,0)"/>
<path d="M0 0 C2.37570543 -0.0816082 4.74855841 -0.14077222 7.125 -0.1875 C7.79015625 -0.21263672 8.4553125 -0.23777344 9.140625 -0.26367188 C15.49747526 -0.35715497 20.27230663 1.81780971 25 6 C25 6.66 25 7.32 25 8 C25.66 8 26.32 8 27 8 C27.64995297 9.41478135 28.29478722 10.83191487 28.9375 12.25 C29.47697266 13.43335938 29.47697266 13.43335938 30.02734375 14.640625 C31.46541364 18.12895518 32.11699279 21.3490069 32.31640625 25.109375 C32.35830078 25.86347656 32.40019531 26.61757813 32.44335938 27.39453125 C32.48267578 28.17183594 32.52199219 28.94914062 32.5625 29.75 C32.60568359 30.54277344 32.64886719 31.33554687 32.69335938 32.15234375 C32.79902991 34.10137815 32.89997966 36.05066748 33 38 C33.804375 38.144375 34.60875 38.28875 35.4375 38.4375 C38 39 38 39 39 40 C39.11356149 41.39025406 39.15951393 42.78613341 39.17700195 44.1809082 C39.19625481 45.51282951 39.19625481 45.51282951 39.21589661 46.87165833 C39.22328354 47.83826889 39.23067047 48.80487946 39.23828125 49.80078125 C39.246353 50.78870163 39.25442474 51.77662201 39.26274109 52.79447937 C39.27660039 54.89023066 39.28731424 56.9860047 39.29516602 59.08178711 C39.31237222 62.28868405 39.35624129 65.49454865 39.40039062 68.70117188 C39.41051759 70.7343674 39.41903368 72.76757171 39.42578125 74.80078125 C39.44328934 75.76131912 39.46079742 76.72185699 39.47883606 77.71150208 C39.47591049 78.6089061 39.47298492 79.50631012 39.4699707 80.4309082 C39.47583694 81.21842972 39.48170319 82.00595123 39.48774719 82.81733704 C38.79133416 85.9337772 37.53125306 87.09802145 35 89 C32.38195801 89.49447632 32.38195801 89.49447632 29.37695312 89.48583984 C27.68499817 89.49506973 27.68499817 89.49506973 25.9588623 89.50448608 C24.13844421 89.48292953 24.13844421 89.48292953 22.28125 89.4609375 C20.40620789 89.45956284 20.40620789 89.45956284 18.49328613 89.4581604 C15.8499504 89.45211738 13.20801192 89.43850663 10.56494141 89.41162109 C7.18211485 89.37764124 3.7998855 89.36999277 0.41690826 89.37151146 C-2.81586998 89.37083592 -6.04852362 89.3531528 -9.28125 89.3359375 C-11.10166809 89.33259903 -11.10166809 89.33259903 -12.9588623 89.32919312 C-14.08683228 89.31643341 -15.21480225 89.30367371 -16.37695312 89.29052734 C-17.36860474 89.28290375 -18.36025635 89.27528015 -19.38195801 89.26742554 C-22.08792809 88.9910184 -23.72639062 88.47074158 -26 87 C-27.15520815 84.68958369 -27.13250658 83.35234337 -27.14526367 80.78149414 C-27.15164352 79.91041519 -27.15802338 79.03933624 -27.16459656 78.14186096 C-27.16570938 77.19914841 -27.1668222 76.25643585 -27.16796875 75.28515625 C-27.17129715 74.31847519 -27.17462555 73.35179413 -27.17805481 72.3558197 C-27.18312317 70.30891395 -27.18546316 68.26199991 -27.18530273 66.21508789 C-27.18748864 63.07880071 -27.20564375 59.9428655 -27.22460938 56.80664062 C-27.22754339 54.82031371 -27.22952813 52.83398511 -27.23046875 50.84765625 C-27.23765427 49.90696793 -27.24483978 48.9662796 -27.25224304 47.99708557 C-27.24916641 47.12285446 -27.24608978 46.24862335 -27.24291992 45.34790039 C-27.24505745 44.19445885 -27.24505745 44.19445885 -27.24723816 43.01771545 C-27 41 -27 41 -25 38 C-23.0546875 37.48828125 -23.0546875 37.48828125 -20.875 37.3125 C-18.956875 37.1578125 -18.956875 37.1578125 -17 37 C-16.87044922 35.36804688 -16.87044922 35.36804688 -16.73828125 33.703125 C-14.77010389 12.00366014 -14.77010389 12.00366014 -8.15234375 6.44921875 C-6.25 5.375 -6.25 5.375 -3 4 C-2.67 3.34 -2.34 2.68 -2 2 C-1.34 2 -0.68 2 0 2 C0 1.34 0 0.68 0 0 Z " fill="#DF5E6A" transform="translate(59,31)"/>
<path d="M0 0 C3.4375 1.1875 3.4375 1.1875 4.4375 3.1875 C6.4175 2.8575 8.3975 2.5275 10.4375 2.1875 C10.64375 2.950625 10.85 3.71375 11.0625 4.5 C12.85820704 8.00979103 14.86886312 8.71349781 18.4375 10.1875 C18.4375 11.8375 18.4375 13.4875 18.4375 15.1875 C19.0975 15.1875 19.7575 15.1875 20.4375 15.1875 C20.685 15.765 20.9325 16.3425 21.1875 16.9375 C22.33235057 19.30558588 22.33235057 19.30558588 24.5078125 20.9609375 C27.01653652 23.85561906 26.80186648 25.29965887 26.5625 29.0625 C26.4089906 33.55264992 26.42715947 37.05513336 28.4375 41.1875 C29.0975 41.5175 29.7575 41.8475 30.4375 42.1875 C30.4375 43.8375 30.4375 45.4875 30.4375 47.1875 C31.9225 47.6825 31.9225 47.6825 33.4375 48.1875 C35.12571048 51.56392095 34.62236378 55.39062942 34.640625 59.10546875 C34.64632507 59.99607498 34.65202515 60.88668121 34.65789795 61.80427551 C34.66735582 63.69315399 34.67388505 65.58204903 34.67773438 67.47094727 C34.68740303 70.34616424 34.71840335 73.22065513 34.75 76.09570312 C34.75653385 77.93228743 34.76178282 79.76887684 34.765625 81.60546875 C34.7779718 82.45989059 34.7903186 83.31431244 34.80303955 84.19462585 C34.78313247 89.59321812 34.08167098 93.43716142 31.4375 98.1875 C28.75 99.125 28.75 99.125 26.4375 99.1875 C26.4375 99.8475 26.4375 100.5075 26.4375 101.1875 C18.83121676 101.21069967 11.22493719 101.22845394 3.61862659 101.23931217 C0.08647726 101.24452433 -3.44564782 101.25159164 -6.9777832 101.26293945 C-11.04118072 101.27591195 -15.10455286 101.280742 -19.16796875 101.28515625 C-20.4327153 101.29031754 -21.69746185 101.29547882 -23.00053406 101.30079651 C-24.18138077 101.30087204 -25.36222748 101.30094757 -26.57885742 101.30102539 C-27.61588303 101.303246 -28.65290863 101.30546661 -29.72135925 101.30775452 C-32.44200872 101.19259993 -34.91406042 100.80152376 -37.5625 100.1875 C-40.79743912 90.50829866 -40.96676066 81.28797245 -40.84375 71.21166992 C-40.81218169 68.59865219 -40.80272597 65.98623778 -40.796875 63.37304688 C-40.78771865 61.70572177 -40.77734729 60.03840279 -40.765625 58.37109375 C-40.76137512 57.59301865 -40.75712524 56.81494354 -40.75274658 56.01329041 C-40.71021587 52.81789172 -40.58002622 50.24007865 -39.5625 47.1875 C-38.9025 47.1875 -38.2425 47.1875 -37.5625 47.1875 C-37.0675 44.2175 -37.0675 44.2175 -36.5625 41.1875 C-35.9025 41.1875 -35.2425 41.1875 -34.5625 41.1875 C-34.2325 36.8975 -33.9025 32.6075 -33.5625 28.1875 C-32.9025 28.1875 -32.2425 28.1875 -31.5625 28.1875 C-31.5625 26.5375 -31.5625 24.8875 -31.5625 23.1875 C-30.9025 23.1875 -30.2425 23.1875 -29.5625 23.1875 C-29.5625 20.8775 -29.5625 18.5675 -29.5625 16.1875 C-28.94375 15.94 -28.325 15.6925 -27.6875 15.4375 C-25.14388675 13.94125691 -24.6698478 12.87677323 -23.5625 10.1875 C-22.51410525 7.64139847 -21.97611289 6.45483516 -19.640625 4.9453125 C-16.89077223 3.94254664 -14.46349883 4.05563642 -11.5625 4.1875 C-11.5625 3.8575 -11.5625 3.5275 -11.5625 3.1875 C-9.9125 3.1875 -8.2625 3.1875 -6.5625 3.1875 C-6.2325 2.1975 -5.9025 1.2075 -5.5625 0.1875 C-3.5625 -0.8125 -3.5625 -0.8125 0 0 Z M-10.5625 6.1875 C-10.5625 6.8475 -10.5625 7.5075 -10.5625 8.1875 C-11.2225 8.1875 -11.8825 8.1875 -12.5625 8.1875 C-12.8925 8.8475 -13.2225 9.5075 -13.5625 10.1875 C-15.17125 10.868125 -15.17125 10.868125 -16.8125 11.5625 C-21.36168933 14.13134407 -22.77017025 17.76941576 -24.5625 22.52734375 C-26.41261664 29.29905974 -27.00835186 36.20688756 -27.5625 43.1875 C-29.58072917 43.35026042 -31.59895833 43.51302083 -33.6171875 43.67578125 C-35.95769216 44.06143036 -35.95769216 44.06143036 -37.5625 47.1875 C-37.86423469 49.24445363 -37.86423469 49.24445363 -37.82128906 51.51953125 C-37.82759338 52.39053467 -37.83389771 53.26153809 -37.84039307 54.15893555 C-37.8363446 55.09648682 -37.83229614 56.03403809 -37.828125 57 C-37.83003845 57.96526611 -37.8319519 58.93053223 -37.83392334 59.92504883 C-37.8352844 61.96598572 -37.83159345 64.0069313 -37.82324219 66.04785156 C-37.81254165 69.17532766 -37.82314022 72.30222931 -37.8359375 75.4296875 C-37.83461589 77.4114596 -37.83205347 79.39323135 -37.828125 81.375 C-37.83217346 82.31255127 -37.83622192 83.25010254 -37.84039307 84.21606445 C-37.83408875 85.08706787 -37.82778442 85.95807129 -37.82128906 86.85546875 C-37.81969788 87.62141357 -37.81810669 88.3873584 -37.81646729 89.17651367 C-37.67459975 91.50260094 -37.67459975 91.50260094 -35.5625 94.1875 C-32.47255742 95.21748086 -30.29318687 95.332408 -27.05297852 95.36450195 C-25.92493301 95.37733719 -24.79688751 95.39017242 -23.63465881 95.40339661 C-21.80649879 95.41447701 -21.80649879 95.41447701 -19.94140625 95.42578125 C-18.68996323 95.433853 -17.4385202 95.44192474 -16.14915466 95.45024109 C-13.50035907 95.46407909 -10.85168783 95.47509711 -8.20288086 95.48266602 C-4.81203234 95.49374456 -1.42183752 95.52816849 1.96877956 95.56783772 C5.20698614 95.60027425 8.44524946 95.60477913 11.68359375 95.61328125 C12.90034286 95.63078934 14.11709198 95.64829742 15.37071228 95.66633606 C16.50190994 95.66341049 17.6331076 95.66048492 18.79858398 95.6574707 C20.29058571 95.66627007 20.29058571 95.66627007 21.81272888 95.67524719 C25.21858384 95.04235536 26.38641091 93.94423909 28.4375 91.1875 C29.0211284 88.99709884 29.0211284 88.99709884 28.92333984 86.63427734 C28.9294931 85.74010101 28.93564636 84.84592468 28.94198608 83.9246521 C28.92761505 82.96725128 28.91324402 82.00985046 28.8984375 81.0234375 C28.89752106 80.03501862 28.89660461 79.04659973 28.8956604 78.02822876 C28.88962467 75.94194731 28.87387958 73.85567452 28.84912109 71.76953125 C28.81255579 68.56738569 28.80810214 65.36639525 28.80859375 62.1640625 C28.79876486 60.13801078 28.78710886 58.11196693 28.7734375 56.0859375 C28.77121185 55.12448822 28.76898621 54.16303894 28.76669312 53.17245483 C28.75393341 52.28458282 28.74117371 51.39671082 28.72802734 50.48193359 C28.72040375 49.69901947 28.71278015 48.91610535 28.70492554 48.10946655 C28.60122192 45.9492816 28.60122192 45.9492816 26.4375 44.1875 C25.1175 44.1875 23.7975 44.1875 22.4375 44.1875 C22.41171875 43.08792969 22.3859375 41.98835938 22.359375 40.85546875 C22.02423762 31.11994828 20.85518451 23.02286903 16.4375 14.1875 C15.7775 14.1875 15.1175 14.1875 14.4375 14.1875 C14.4375 13.5275 14.4375 12.8675 14.4375 12.1875 C12.98438391 10.86122219 12.98438391 10.86122219 11.125 9.625 C10.20267578 8.97337891 10.20267578 8.97337891 9.26171875 8.30859375 C5.22487476 5.82770676 1.3145948 6.06959409 -3.25 6.125 C-3.95189453 6.12951172 -4.65378906 6.13402344 -5.37695312 6.13867188 C-7.10550538 6.15043073 -8.83401365 6.16836546 -10.5625 6.1875 Z " fill="#D9E7E5" transform="translate(69.5625,24.8125)"/>
<path d="M0 0 C1.51400391 0.01740234 1.51400391 0.01740234 3.05859375 0.03515625 C4.07050781 0.04417969 5.08242187 0.05320312 6.125 0.0625 C7.29869141 0.07990234 7.29869141 0.07990234 8.49609375 0.09765625 C9.15609375 3.06765625 9.81609375 6.03765625 10.49609375 9.09765625 C11.23859375 8.58203125 11.98109375 8.06640625 12.74609375 7.53515625 C15.49609375 6.09765625 15.49609375 6.09765625 17.55859375 6.03515625 C20.6781995 7.74590779 21.85665595 9.9944347 23.49609375 13.09765625 C23.74609375 16.47265625 23.74609375 16.47265625 23.49609375 19.09765625 C21.84609375 19.42765625 20.19609375 19.75765625 18.49609375 20.09765625 C19.80505095 23.21963103 19.80505095 23.21963103 22.49609375 25.09765625 C22.49609375 28.39765625 22.49609375 31.69765625 22.49609375 35.09765625 C20.84609375 35.75765625 19.19609375 36.41765625 17.49609375 37.09765625 C17.49609375 37.75765625 17.49609375 38.41765625 17.49609375 39.09765625 C14.85609375 39.75765625 12.21609375 40.41765625 9.49609375 41.09765625 C9.49609375 41.75765625 9.49609375 42.41765625 9.49609375 43.09765625 C5.20609375 43.09765625 0.91609375 43.09765625 -3.50390625 43.09765625 C-3.83390625 40.45765625 -4.16390625 37.81765625 -4.50390625 35.09765625 C-5.49390625 35.59265625 -5.49390625 35.59265625 -6.50390625 36.09765625 C-8.50350637 36.13764825 -10.50437867 36.14112424 -12.50390625 36.09765625 C-17.07533482 28.81194196 -17.07533482 28.81194196 -16.50390625 24.09765625 C-14.52390625 23.43765625 -12.54390625 22.77765625 -10.50390625 22.09765625 C-10.50390625 21.43765625 -10.50390625 20.77765625 -10.50390625 20.09765625 C-11.28765625 19.78828125 -12.07140625 19.47890625 -12.87890625 19.16015625 C-15.50390625 18.09765625 -15.50390625 18.09765625 -17.50390625 17.09765625 C-16.97275519 12.58287227 -15.13770333 9.75098768 -12.50390625 6.09765625 C-9.35653443 6.79707221 -6.47801749 7.85844323 -3.50390625 9.09765625 C-3.52453125 7.79828125 -3.54515625 6.49890625 -3.56640625 5.16015625 C-3.58790079 3.80599992 -3.57538824 2.45009542 -3.50390625 1.09765625 C-2.50390625 0.09765625 -2.50390625 0.09765625 0 0 Z " fill="#586FE7" transform="translate(130.50390625,72.90234375)"/>
<path d="M0 0 C3.96 0 7.92 0 12 0 C12.33 2.97 12.66 5.94 13 9 C13.9075 8.484375 14.815 7.96875 15.75 7.4375 C19 6 19 6 21.1875 6 C23.89085615 7.49150684 24.73597052 9.21913515 26 12 C26.1875 14.8125 26.1875 14.8125 26 17 C24.02 17.99 24.02 17.99 22 19 C22 19.99 22 20.98 22 22 C23.94009522 23.70532323 23.94009522 23.70532323 26 25 C25.43454163 28.95820859 24.19097652 31.6659053 22 35 C18.26512223 34.5020163 16.18762365 34.12508244 13 32 C12.95101562 32.71027344 12.90203125 33.42054687 12.8515625 34.15234375 C12.77679688 35.07144531 12.70203125 35.99054688 12.625 36.9375 C12.55539063 37.85402344 12.48578125 38.77054688 12.4140625 39.71484375 C12.27742188 40.46894531 12.14078125 41.22304687 12 42 C9.59454362 43.20272819 8.05003047 43.10071472 5.375 43.0625 C4.14910156 43.04896484 4.14910156 43.04896484 2.8984375 43.03515625 C2.27195313 43.02355469 1.64546875 43.01195312 1 43 C-0.60725635 39.78548731 -0.05748185 36.56387464 0 33 C-2.97 33.66 -5.94 34.32 -9 35 C-14.04370346 28.6031078 -14.04370346 28.6031078 -13.84375 25.84375 C-13 24 -13 24 -9.9375 22.75 C-8.968125 22.5025 -7.99875 22.255 -7 22 C-7 21.34 -7 20.68 -7 20 C-8.175625 19.566875 -8.175625 19.566875 -9.375 19.125 C-12 18 -12 18 -14 16 C-13.67800066 12.02867481 -12.16420003 9.29334787 -10 6 C-6.04179141 6.56545837 -3.3340947 7.80902348 0 10 C0 6.7 0 3.4 0 0 Z " fill="#5C74E5" transform="translate(176,73)"/>
<path d="M0 0 C3.96 0 7.92 0 12 0 C12.33 2.97 12.66 5.94 13 9 C13.9075 8.484375 14.815 7.96875 15.75 7.4375 C19 6 19 6 21.1875 5.9375 C24.12988201 7.66234463 24.85496035 9.86620726 26 13 C25.6875 15.875 25.6875 15.875 25 18 C23.68 18.33 22.36 18.66 21 19 C21 20.32 21 21.64 21 23 C21.639375 23.2475 22.27875 23.495 22.9375 23.75 C25 25 25 25 26 26.75 C26 30.25921527 24.04766433 32.26978089 22 35 C19.03 34.34 16.06 33.68 13 33 C13.020625 34.299375 13.04125 35.59875 13.0625 36.9375 C13.08399454 38.29165633 13.07148199 39.64756083 13 41 C12 42 12 42 9.78515625 42.1328125 C8.88667969 42.13023438 7.98820312 42.12765625 7.0625 42.125 C6.16660156 42.12757812 5.27070313 42.13015625 4.34765625 42.1328125 C2 42 2 42 0 41 C0 38.36 0 35.72 0 33 C-0.93972656 33.25136719 -0.93972656 33.25136719 -1.8984375 33.5078125 C-2.71570313 33.71148437 -3.53296875 33.91515625 -4.375 34.125 C-5.18710938 34.33382812 -5.99921875 34.54265625 -6.8359375 34.7578125 C-7.55007812 34.83773437 -8.26421875 34.91765625 -9 35 C-9.66 34.34 -10.32 33.68 -11 33 C-11 32.01 -11 31.02 -11 30 C-11.66 30 -12.32 30 -13 30 C-13.33 28.35 -13.66 26.7 -14 25 C-9.25 22 -9.25 22 -7 22 C-7 21.34 -7 20.68 -7 20 C-8.175625 19.566875 -8.175625 19.566875 -9.375 19.125 C-12 18 -12 18 -14 16 C-13.76236269 11.60370982 -11.85856441 9.22741144 -9 6 C-5.59687262 7.05875074 -2.98646769 8.00902154 0 10 C0 6.7 0 3.4 0 0 Z " fill="#5A72E5" transform="translate(225,73)"/>
<path d="M0 0 C3.4375 1.8125 3.4375 1.8125 6 4 C6.86625 4.495 7.7325 4.99 8.625 5.5 C11.28162317 7.17786726 13.09465159 8.48221818 15 11 C16.52652026 17.99655117 16 24.76125115 16 32 C2.8 32 -10.4 32 -24 32 C-26.65257174 26.69485653 -25.60813052 18.644499 -24.31640625 13.02734375 C-22.2923836 7.45918186 -19.94292257 4.26022552 -15 1 C-10.09447876 -0.63517375 -5.1191487 -0.50240982 0 0 Z " fill="#FBFDFC" transform="translate(72,37)"/>
<path d="M0 0 C3.96 0 7.92 0 12 0 C13.4783226 2.95664519 13.06032783 5.74229737 13 9 C13.721875 8.484375 14.44375 7.96875 15.1875 7.4375 C18 6 18 6 20.625 5.875 C23 7 23 7 24.8125 10.375 C26 14 26 14 26 17 C25.01 17.33 24.02 17.66 23 18 C22.505 19.485 22.505 19.485 22 21 C21.34 21 20.68 21 20 21 C20 21.66 20 22.32 20 23 C21.65 23.33 23.3 23.66 25 24 C26.0326802 26.78823655 26.04509293 27.8677274 25.0625 30.75 C24.5365625 31.86375 24.5365625 31.86375 24 33 C23.34 33 22.68 33 22 33 C22 33.66 22 34.32 22 35 C18.65626525 34.44271087 15.96687001 33.64826111 13 32 C12.855625 33.299375 12.71125 34.59875 12.5625 35.9375 C12.125 39.875 12.125 39.875 11 41 C9.14712498 41.07226502 7.29166122 41.0838122 5.4375 41.0625 C4.42558594 41.05347656 3.41367187 41.04445312 2.37109375 41.03515625 C1.19740234 41.01775391 1.19740234 41.01775391 0 41 C-0.33 38.69 -0.66 36.38 -1 34 C-1.99 34.66 -2.98 35.32 -4 36 C-7.1875 36.125 -7.1875 36.125 -10 36 C-10.33 34.35 -10.66 32.7 -11 31 C-11.66 31 -12.32 31 -13 31 C-13.33 29.02 -13.66 27.04 -14 25 C-12.02 24.01 -10.04 23.02 -8 22 C-8 21.34 -8 20.68 -8 20 C-9.96147874 18.61061923 -11.96166576 17.2739589 -14 16 C-13.43454163 12.04179141 -12.19097652 9.3340947 -10 6 C-6.04179141 6.56545837 -3.3340947 7.80902348 0 10 C0 6.7 0 3.4 0 0 Z " fill="#5A73E5" transform="translate(274,73)"/>
<path d="M0 0 C2.37570543 -0.0816082 4.74855841 -0.14077222 7.125 -0.1875 C7.79015625 -0.21263672 8.4553125 -0.23777344 9.140625 -0.26367188 C15.49747526 -0.35715497 20.27230663 1.81780971 25 6 C25 6.66 25 7.32 25 8 C25.66 8 26.32 8 27 8 C27.64995297 9.41478135 28.29478722 10.83191487 28.9375 12.25 C29.47697266 13.43335938 29.47697266 13.43335938 30.02734375 14.640625 C32.31943858 20.20056588 32.36512194 25.72634129 32.71875 31.6875 C32.94058553 34.30022963 33.32549714 36.4931432 34 39 C26.25117741 40.5648912 18.75257949 41.18089315 10.8671875 41.2734375 C9.97598206 41.28457581 9.08477661 41.29571411 8.16656494 41.30718994 C4.45412368 41.34618461 0.74194046 41.37321495 -2.97070312 41.38085938 C-5.71270112 41.39033414 -8.45356699 41.42398369 -11.1953125 41.4609375 C-12.45615158 41.45336929 -12.45615158 41.45336929 -13.74246216 41.44564819 C-18.19319468 41.50880972 -18.19319468 41.50880972 -22.02978516 43.54174805 C-23.38881119 46.98513837 -23.38981006 50.22772545 -23.328125 53.87109375 C-23.32625183 54.63043716 -23.32437866 55.38978058 -23.32244873 56.1721344 C-23.31573905 57.77503868 -23.30184599 59.37792689 -23.28125 60.98071289 C-23.25015329 63.42544913 -23.24028118 65.86953883 -23.234375 68.31445312 C-23.22520145 69.8750078 -23.21482456 71.43555597 -23.203125 72.99609375 C-23.19887512 73.72332138 -23.19462524 74.45054901 -23.19024658 75.19981384 C-23.13830054 78.91665132 -22.88107507 82.38432569 -22 86 C-23.98 86.495 -23.98 86.495 -26 87 C-27.15520815 84.68958369 -27.13250658 83.35234337 -27.14526367 80.78149414 C-27.15164352 79.91041519 -27.15802338 79.03933624 -27.16459656 78.14186096 C-27.16570938 77.19914841 -27.1668222 76.25643585 -27.16796875 75.28515625 C-27.17129715 74.31847519 -27.17462555 73.35179413 -27.17805481 72.3558197 C-27.18312317 70.30891395 -27.18546316 68.26199991 -27.18530273 66.21508789 C-27.18748864 63.07880071 -27.20564375 59.9428655 -27.22460938 56.80664062 C-27.22754339 54.82031371 -27.22952813 52.83398511 -27.23046875 50.84765625 C-27.23765427 49.90696793 -27.24483978 48.9662796 -27.25224304 47.99708557 C-27.24916641 47.12285446 -27.24608978 46.24862335 -27.24291992 45.34790039 C-27.24505745 44.19445885 -27.24505745 44.19445885 -27.24723816 43.01771545 C-27 41 -27 41 -25 38 C-23.0546875 37.48828125 -23.0546875 37.48828125 -20.875 37.3125 C-18.956875 37.1578125 -18.956875 37.1578125 -17 37 C-16.87044922 35.36804688 -16.87044922 35.36804688 -16.73828125 33.703125 C-14.77010389 12.00366014 -14.77010389 12.00366014 -8.15234375 6.44921875 C-6.25 5.375 -6.25 5.375 -3 4 C-2.67 3.34 -2.34 2.68 -2 2 C-1.34 2 -0.68 2 0 2 C0 1.34 0 0.68 0 0 Z M-7.1875 11.1875 C-12.38294562 19.24939838 -12.64426158 26.55908999 -12 36 C-11.67 36.66 -11.34 37.32 -11 38 C2.2 38 15.4 38 29 38 C29.91853761 26.00991729 29.91853761 26.00991729 26.25 14.6875 C23.90852467 12.9313935 21.5411199 11.45206852 19 10 C18.154375 9.278125 17.30875 8.55625 16.4375 7.8125 C8.55681604 3.65723028 -0.89170783 4.89170783 -7.1875 11.1875 Z " fill="#C66768" transform="translate(59,31)"/>
<path d="M0 0 C3.4375 1.1875 3.4375 1.1875 4.4375 3.1875 C6.4175 2.8575 8.3975 2.5275 10.4375 2.1875 C10.64375 2.950625 10.85 3.71375 11.0625 4.5 C12.85820704 8.00979103 14.86886312 8.71349781 18.4375 10.1875 C18.4375 11.8375 18.4375 13.4875 18.4375 15.1875 C19.0975 15.1875 19.7575 15.1875 20.4375 15.1875 C20.685 15.765 20.9325 16.3425 21.1875 16.9375 C22.33489852 19.30568252 22.33489852 19.30568252 24.5078125 20.98046875 C26.97547308 23.8027931 26.8076094 25.06845682 26.5625 28.75 C26.33878474 34.81268367 27.13509653 40.28016998 28.4375 46.1875 C25.5 45.375 25.5 45.375 22.4375 44.1875 C21.33268505 40.87305515 21.26005036 38.17565784 21.125 34.6875 C20.75230389 28.69951576 19.57313256 23.81984026 17.27734375 18.296875 C16.4375 16.1875 16.4375 16.1875 16.4375 14.1875 C15.7775 14.1875 15.1175 14.1875 14.4375 14.1875 C14.4375 13.5275 14.4375 12.8675 14.4375 12.1875 C13.90125 11.919375 13.365 11.65125 12.8125 11.375 C11.10747271 10.52248636 9.4327643 9.60829942 7.78125 8.65625 C3.99449042 6.99290701 0.63086644 6.63797754 -3.4375 6.5 C-4.12585938 6.46583984 -4.81421875 6.43167969 -5.5234375 6.39648438 C-7.20258613 6.31485909 -8.88251168 6.2494843 -10.5625 6.1875 C-10.5625 6.8475 -10.5625 7.5075 -10.5625 8.1875 C-11.2225 8.1875 -11.8825 8.1875 -12.5625 8.1875 C-12.8925 9.1775 -13.2225 10.1675 -13.5625 11.1875 C-14.655625 11.6825 -15.74875 12.1775 -16.875 12.6875 C-21.22286423 15.08417106 -22.32568204 18.14488318 -23.7890625 22.75390625 C-25.05404787 28.36967461 -25.63446786 34.03261191 -26.16796875 39.7578125 C-26.5625 43.1875 -26.5625 43.1875 -27.5625 44.1875 C-30.23308851 44.32865161 -32.88682238 44.22997107 -35.5625 44.1875 C-35.8925 45.1775 -36.2225 46.1675 -36.5625 47.1875 C-37.6875 43.4375 -37.6875 43.4375 -36.5625 41.1875 C-35.9025 41.1875 -35.2425 41.1875 -34.5625 41.1875 C-34.2325 36.8975 -33.9025 32.6075 -33.5625 28.1875 C-32.9025 28.1875 -32.2425 28.1875 -31.5625 28.1875 C-31.5625 26.5375 -31.5625 24.8875 -31.5625 23.1875 C-30.9025 23.1875 -30.2425 23.1875 -29.5625 23.1875 C-29.5625 20.8775 -29.5625 18.5675 -29.5625 16.1875 C-28.94375 15.94 -28.325 15.6925 -27.6875 15.4375 C-25.14388675 13.94125691 -24.6698478 12.87677323 -23.5625 10.1875 C-22.51410525 7.64139847 -21.97611289 6.45483516 -19.640625 4.9453125 C-16.89077223 3.94254664 -14.46349883 4.05563642 -11.5625 4.1875 C-11.5625 3.8575 -11.5625 3.5275 -11.5625 3.1875 C-9.9125 3.1875 -8.2625 3.1875 -6.5625 3.1875 C-6.2325 2.1975 -5.9025 1.2075 -5.5625 0.1875 C-3.5625 -0.8125 -3.5625 -0.8125 0 0 Z " fill="#E9F0EC" transform="translate(69.5625,24.8125)"/>
<path d="M0 0 C3.96 0 7.92 0 12 0 C12 0.66 12 1.32 12 2 C9.36 2.33 6.72 2.66 4 3 C4 3.99 4 4.98 4 6 C4.66 6.33 5.32 6.66 6 7 C5.01 7 4.02 7 3 7 C3 8.32 3 9.64 3 11 C3.66 11 4.32 11 5 11 C4.67 12.32 4.34 13.64 4 15 C2.68 14.34 1.36 13.68 0 13 C0 14.32 0 15.64 0 17 C0 18.32 0 19.64 0 21 C0.66 21 1.32 21 2 21 C2 21.66 2 22.32 2 23 C1.34 23 0.68 23 0 23 C0.66 23.66 1.32 24.32 2 25 C2.14507695 27.74485593 2.18652423 30.38480543 2.125 33.125 C2.11597656 33.87910156 2.10695312 34.63320312 2.09765625 35.41015625 C2.0740687 37.27357254 2.03819719 39.13682593 2 41 C5.3 41 8.6 41 12 41 C10 43 10 43 7.8359375 43.1953125 C7.02382812 43.17210937 6.21171875 43.14890625 5.375 43.125 C4.55773437 43.10695312 3.74046875 43.08890625 2.8984375 43.0703125 C2.27195313 43.04710937 1.64546875 43.02390625 1 43 C-0.60725635 39.78548731 -0.05748185 36.56387464 0 33 C-2.97 33.66 -5.94 34.32 -9 35 C-14.04370346 28.6031078 -14.04370346 28.6031078 -13.84375 25.84375 C-13 24 -13 24 -9.9375 22.75 C-8.968125 22.5025 -7.99875 22.255 -7 22 C-7 21.34 -7 20.68 -7 20 C-8.175625 19.566875 -8.175625 19.566875 -9.375 19.125 C-12 18 -12 18 -14 16 C-13.67800066 12.02867481 -12.16420003 9.29334787 -10 6 C-6.04179141 6.56545837 -3.3340947 7.80902348 0 10 C0 6.7 0 3.4 0 0 Z " fill="#6C86E5" transform="translate(176,73)"/>
<path d="M0 0 C1.485 0.495 1.485 0.495 3 1 C2.62746094 1.45890625 2.25492188 1.9178125 1.87109375 2.390625 C1.39800781 3.00421875 0.92492187 3.6178125 0.4375 4.25 C-0.03816406 4.85328125 -0.51382813 5.4565625 -1.00390625 6.078125 C-2.19579802 7.95742272 -2.19579802 7.95742272 -1.8125 10.1328125 C-0.62335876 12.86555053 1.46745884 13.57138704 4 15 C4 15.66 4 16.32 4 17 C2.02 17.99 0.04 18.98 -2 20 C-2 21.65 -2 23.3 -2 25 C-1.34 25 -0.68 25 0 25 C0.66 26.32 1.32 27.64 2 29 C4.97 28.67 7.94 28.34 11 28 C10.34 29.98 9.68 31.96 9 34 C3.58657319 32.85485202 1.0657052 31.65987191 -2 27 C-3.65 27.33 -5.3 27.66 -7 28 C-7 26.68 -7 25.36 -7 24 C-9.02965198 24.4251892 -9.02965198 24.4251892 -11 26 C-11.98494554 28.65177645 -12.45912382 31.20547307 -13 34 C-14.98567708 34.22786458 -16.97135417 34.45572917 -18.95703125 34.68359375 C-21.19396393 34.97170735 -21.19396393 34.97170735 -24 36 C-24 36.66 -24 37.32 -24 38 C-26.31 38.66 -28.62 39.32 -31 40 C-31 39.34 -31 38.68 -31 38 C-28.525 37.505 -28.525 37.505 -26 37 C-26 33.37 -26 29.74 -26 26 C-25.0925 26.495 -24.185 26.99 -23.25 27.5 C-19.99126962 29.27937212 -19.99126962 29.27937212 -16 29 C-13.78304138 26.32436029 -12.96228436 24.81088621 -13.125 21.3125 C-13.86978792 18.66654608 -13.86978792 18.66654608 -17 17 C-16.67 15.68 -16.34 14.36 -16 13 C-14.68 12.67 -13.36 12.34 -12 12 C-12.94933899 8.64566891 -13.89748835 5.30753495 -15 2 C-13.25 2.125 -13.25 2.125 -11 3 C-8.75 6.0625 -8.75 6.0625 -7 9 C-7.061875 8.21625 -7.12375 7.4325 -7.1875 6.625 C-7.0946875 5.325625 -7.0946875 5.325625 -7 4 C-4 2 -4 2 -1 2 C-0.67 1.34 -0.34 0.68 0 0 Z " fill="#F2F7F8" transform="translate(214,78)"/>
<path d="M0 0 C3.4375 1.8125 3.4375 1.8125 6 4 C6.86625 4.495 7.7325 4.99 8.625 5.5 C11.28162317 7.17786726 13.09465159 8.48221818 15 11 C16.52652026 17.99655117 16 24.76125115 16 32 C2.8 32 -10.4 32 -24 32 C-26.65257174 26.69485653 -25.60813052 18.644499 -24.31640625 13.02734375 C-22.2923836 7.45918186 -19.94292257 4.26022552 -15 1 C-10.09447876 -0.63517375 -5.1191487 -0.50240982 0 0 Z M-8 2 C-8 3.32 -8 4.64 -8 6 C-8.86625 6.185625 -8.86625 6.185625 -9.75 6.375 C-12.02335767 7.00648824 -13.9253529 7.88858191 -16 9 C-16 9.66 -16 10.32 -16 11 C-16.66 11 -17.32 11 -18 11 C-18.103125 11.763125 -18.20625 12.52625 -18.3125 13.3125 C-19 16 -19 16 -22 19 C-21.67 22.96 -21.34 26.92 -21 31 C-10.11 31 0.78 31 12 31 C12 25.72 12 20.44 12 15 C11.34 14.67 10.68 14.34 10 14 C9.33333333 12.66666667 8.66666667 11.33333333 8 10 C3.46814824 4.7525927 -1.23034253 2.89034044 -8 2 Z " fill="#CBCFCD" transform="translate(72,37)"/>
<path d="M0 0 C3.96 0 7.92 0 12 0 C12 0.66 12 1.32 12 2 C8.7 2.33 5.4 2.66 2 3 C2.04125 4.0725 2.0825 5.145 2.125 6.25 C2.01142928 9.65712165 1.89535315 11.26226767 0 14 C-0.99 14.495 -0.99 14.495 -2 15 C-2 16.32 -2 17.64 -2 19 C-2.51258822 21.41648733 -3.21689351 23.65068053 -4 26 C-3.01 25.67 -2.02 25.34 -1 25 C1.42130331 28.63195496 1.21022785 30.38349348 1.125 34.6875 C1.10695313 35.86699219 1.08890625 37.04648438 1.0703125 38.26171875 C1.03550781 39.61716797 1.03550781 39.61716797 1 41 C0.67 41 0.34 41 0 41 C-0.33 38.69 -0.66 36.38 -1 34 C-1.99 34.66 -2.98 35.32 -4 36 C-7.1875 36.125 -7.1875 36.125 -10 36 C-10.33 34.35 -10.66 32.7 -11 31 C-11.66 31 -12.32 31 -13 31 C-13.33 29.02 -13.66 27.04 -14 25 C-12.02 24.01 -10.04 23.02 -8 22 C-8 21.34 -8 20.68 -8 20 C-9.96147874 18.61061923 -11.96166576 17.2739589 -14 16 C-13.43454163 12.04179141 -12.19097652 9.3340947 -10 6 C-6.04179141 6.56545837 -3.3340947 7.80902348 0 10 C0 6.7 0 3.4 0 0 Z " fill="#6E85E4" transform="translate(274,73)"/>
<path d="M0 0 C0.495 0.99 0.495 0.99 1 2 C1.66 2 2.32 2 3 2 C3 14.54 3 27.08 3 40 C3.66 40.33 4.32 40.66 5 41 C4.60404157 42.48484412 4.18249294 43.9628831 3.75 45.4375 C3.51796875 46.26121094 3.2859375 47.08492187 3.046875 47.93359375 C2 50 2 50 0.27928162 50.62007141 C-2.35366505 51.05895167 -4.84502988 51.13477943 -7.51538086 51.14526367 C-8.62010239 51.15164352 -9.72482391 51.15802338 -10.86302185 51.16459656 C-12.05162308 51.16570938 -13.2402243 51.1668222 -14.46484375 51.16796875 C-15.69030411 51.17129715 -16.91576447 51.17462555 -18.17835999 51.17805481 C-20.76986313 51.18311716 -23.36137278 51.18546335 -25.95288086 51.18530273 C-29.9185661 51.18748956 -33.88397334 51.20565389 -37.84960938 51.22460938 C-40.36718655 51.22754335 -42.88476504 51.22952812 -45.40234375 51.23046875 C-47.18220924 51.24124702 -47.18220924 51.24124702 -48.99803162 51.25224304 C-50.1059053 51.24916641 -51.21377899 51.24608978 -52.35522461 51.24291992 C-53.32689072 51.24434494 -54.29855682 51.24576996 -55.29966736 51.24723816 C-58.19529282 50.9821193 -60.36843327 50.20697239 -63 49 C-63 48.34 -63 47.68 -63 47 C-61.90125801 47.00999275 -61.90125801 47.00999275 -60.78031921 47.02018738 C-53.87943197 47.08028233 -46.9785838 47.12596617 -40.07750225 47.15543652 C-36.52950064 47.17109693 -32.98171513 47.19234151 -29.43383789 47.22631836 C-25.35561033 47.26513007 -21.27760999 47.27970602 -17.19921875 47.29296875 C-15.92414963 47.30845261 -14.64908051 47.32393646 -13.33537292 47.33988953 C-12.15437515 47.34011612 -10.97337738 47.34034271 -9.7565918 47.34057617 C-8.19439156 47.35056892 -8.19439156 47.35056892 -6.60063171 47.36076355 C-3.99572892 47.19546029 -3.99572892 47.19546029 -2.16723633 45.75244141 C-0.70916779 43.56335629 -0.60518597 42.24198079 -0.56762695 39.62036133 C-0.54783279 38.73967484 -0.52803864 37.85898834 -0.50764465 36.95161438 C-0.49805977 35.53117073 -0.49805977 35.53117073 -0.48828125 34.08203125 C-0.47033005 33.10965012 -0.45237885 32.13726898 -0.43388367 31.13542175 C-0.37967533 28.02782536 -0.34585102 24.92038348 -0.3125 21.8125 C-0.27933624 19.70635866 -0.24484747 17.60023773 -0.20898438 15.49414062 C-0.12394269 10.32953839 -0.05718159 5.16498281 0 0 Z " fill="#BDD1D5" transform="translate(98,72)"/>
<path d="M0 0 C1.32 0 2.64 0 4 0 C4 1.65 4 3.3 4 5 C4.99 4.67 5.98 4.34 7 4 C7.33 4.99 7.66 5.98 8 7 C8.66 7.33 9.32 7.66 10 8 C10 6.02 10 4.04 10 2 C11.65 1.34 13.3 0.68 15 0 C14.34 2.97 13.68 5.94 13 9 C14.98 10.32 16.96 11.64 19 13 C18.67 13.99 18.34 14.98 18 16 C15.4375 17.1875 15.4375 17.1875 13 18 C13 19.98 13 21.96 13 24 C13.66 24 14.32 24 15 24 C15.495 25.98 15.495 25.98 16 28 C15.34 28 14.68 28 14 28 C14 27.34 14 26.68 14 26 C13.34 26 12.68 26 12 26 C12 26.66 12 27.32 12 28 C11.34 27.67 10.68 27.34 10 27 C10 24.36 10 21.72 10 19 C9.34 19.33 8.68 19.66 8 20 C7.67 20.99 7.34 21.98 7 23 C6.34 23.66 5.68 24.32 5 25 C3.64837492 26.98768394 2.31306433 28.9866347 1 31 C-2.52069985 30.41321669 -4.71299843 29.64350079 -8 28 C-8 31.3 -8 34.6 -8 38 C-11.96 37.34 -15.92 36.68 -20 36 C-20 35.67 -20 35.34 -20 35 C-15.545 34.505 -15.545 34.505 -11 34 C-10.67 31.36 -10.34 28.72 -10 26 C-7.03 26.33 -4.06 26.66 -1 27 C1.38985651 23.70856635 1.38985651 23.70856635 1.875 19.8125 C1.01785339 17.64490586 1.01785339 17.64490586 -2 16 C-2 14.68 -2 13.36 -2 12 C-0.68 11.34 0.64 10.68 2 10 C1.46274105 6.62294375 0.88935377 3.303314 0 0 Z " fill="#F5F8FA" transform="translate(248,80)"/>
<path d="M0 0 C7.34356842 0.83295105 12.11310555 3.4025112 17 9 C17.33 9.99 17.66 10.98 18 12 C18.66 12.33 19.32 12.66 20 13 C20 18.28 20 23.56 20 29 C9.11 29 -1.78 29 -13 29 C-13.33 24.71 -13.66 20.42 -14 16 C-12.68 14.68 -11.36 13.36 -10 12 C-10 11.01 -10 10.02 -10 9 C-9.34 9 -8.68 9 -8 9 C-8 8.34 -8 7.68 -8 7 C-5.09451118 4.95830515 -3.59857954 4 0 4 C0 2.68 0 1.36 0 0 Z M4 4 C3.46375 4.66 2.9275 5.32 2.375 6 C-0.6463735 8.54431453 -2.16781543 8 -6 8 C-10.3 12.9 -10.3 12.9 -9 25 C-0.42 25 8.16 25 17 25 C17.10418671 16.63134917 17.10418671 16.63134917 15 9 C11.38732388 7.1151255 9.08960701 7 5 7 C4.67 6.01 4.34 5.02 4 4 Z " fill="#E8F3F3" transform="translate(64,39)"/>
<path d="M0 0 C0.33 0 0.66 0 1 0 C1 4.29 1 8.58 1 13 C1.99 13 2.98 13 4 13 C4.33 12.34 4.66 11.68 5 11 C5 11.66 5 12.32 5 13 C19.19 13 33.38 13 48 13 C48.33 12.01 48.66 11.02 49 10 C49.495 11.98 49.495 11.98 50 14 C42.25117741 15.5648912 34.75257949 16.18089315 26.8671875 16.2734375 C25.97598206 16.28457581 25.08477661 16.29571411 24.16656494 16.30718994 C20.45412368 16.34618461 16.74194046 16.37321495 13.02929688 16.38085938 C10.28729888 16.39033414 7.54643301 16.42398369 4.8046875 16.4609375 C3.96412811 16.45589203 3.12356873 16.45084656 2.25753784 16.44564819 C-2.19319468 16.50880972 -2.19319468 16.50880972 -6.02978516 18.54174805 C-7.38881119 21.98513837 -7.38981006 25.22772545 -7.328125 28.87109375 C-7.32625183 29.63043716 -7.32437866 30.38978058 -7.32244873 31.1721344 C-7.31573905 32.77503868 -7.30184599 34.37792689 -7.28125 35.98071289 C-7.25015329 38.42544913 -7.24028118 40.86953883 -7.234375 43.31445312 C-7.22520145 44.8750078 -7.21482456 46.43555597 -7.203125 47.99609375 C-7.19887512 48.72332138 -7.19462524 49.45054901 -7.19024658 50.19981384 C-7.13830054 53.91665132 -6.88107507 57.38432569 -6 61 C-7.98 61.495 -7.98 61.495 -10 62 C-11.15520815 59.68958369 -11.13250658 58.35234337 -11.14526367 55.78149414 C-11.15164352 54.91041519 -11.15802338 54.03933624 -11.16459656 53.14186096 C-11.16570938 52.19914841 -11.1668222 51.25643585 -11.16796875 50.28515625 C-11.17129715 49.31847519 -11.17462555 48.35179413 -11.17805481 47.3558197 C-11.18312317 45.30891395 -11.18546316 43.26199991 -11.18530273 41.21508789 C-11.18748864 38.07880071 -11.20564375 34.9428655 -11.22460938 31.80664062 C-11.22754339 29.82031371 -11.22952813 27.83398511 -11.23046875 25.84765625 C-11.23765427 24.90696793 -11.24483978 23.9662796 -11.25224304 22.99708557 C-11.24916641 22.12285446 -11.24608978 21.24862335 -11.24291992 20.34790039 C-11.24505745 19.19445885 -11.24505745 19.19445885 -11.24723816 18.01771545 C-11 16 -11 16 -9 13 C-7.0546875 12.48828125 -7.0546875 12.48828125 -4.875 12.3125 C-3.59625 12.209375 -2.3175 12.10625 -1 12 C-0.67 8.04 -0.34 4.08 0 0 Z " fill="#E898A1" transform="translate(43,56)"/>
<path d="M0 0 C1.51400391 0.01740234 1.51400391 0.01740234 3.05859375 0.03515625 C4.07050781 0.04417969 5.08242187 0.05320312 6.125 0.0625 C7.29869141 0.07990234 7.29869141 0.07990234 8.49609375 0.09765625 C8.49609375 0.75765625 8.49609375 1.41765625 8.49609375 2.09765625 C5.19609375 2.09765625 1.89609375 2.09765625 -1.50390625 2.09765625 C-1.83390625 5.06765625 -2.16390625 8.03765625 -2.50390625 11.09765625 C-5.80390625 11.42765625 -9.10390625 11.75765625 -12.50390625 12.09765625 C-12.83390625 13.41765625 -13.16390625 14.73765625 -13.50390625 16.09765625 C-11.36535775 18.23620475 -10.37115311 18.52420688 -7.50390625 19.09765625 C-7.17390625 18.43765625 -6.84390625 17.77765625 -6.50390625 17.09765625 C-5.84390625 17.75765625 -5.18390625 18.41765625 -4.50390625 19.09765625 C-5.49390625 19.42765625 -6.48390625 19.75765625 -7.50390625 20.09765625 C-7.50390625 20.75765625 -7.50390625 21.41765625 -7.50390625 22.09765625 C-6.51390625 22.42765625 -5.52390625 22.75765625 -4.50390625 23.09765625 C-6.15390625 23.75765625 -7.80390625 24.41765625 -9.50390625 25.09765625 C-9.50390625 25.75765625 -9.50390625 26.41765625 -9.50390625 27.09765625 C-10.16390625 27.09765625 -10.82390625 27.09765625 -11.50390625 27.09765625 C-11.31828125 28.04640625 -11.13265625 28.99515625 -10.94140625 29.97265625 C-10.50390625 33.09765625 -10.50390625 33.09765625 -11.50390625 35.09765625 C-9.02890625 34.60265625 -9.02890625 34.60265625 -6.50390625 34.09765625 C-6.50390625 33.43765625 -6.50390625 32.77765625 -6.50390625 32.09765625 C-5.18390625 31.76765625 -3.86390625 31.43765625 -2.50390625 31.09765625 C-2.50390625 34.39765625 -2.50390625 37.69765625 -2.50390625 41.09765625 C1.12609375 41.09765625 4.75609375 41.09765625 8.49609375 41.09765625 C8.49609375 37.79765625 8.49609375 34.49765625 8.49609375 31.09765625 C9.58921875 31.59265625 10.68234375 32.08765625 11.80859375 32.59765625 C15.2957562 34.28605531 15.2957562 34.28605531 18.49609375 34.09765625 C20.18408202 32.66015434 20.18408202 32.66015434 21.49609375 31.09765625 C21.99109375 33.07765625 21.99109375 33.07765625 22.49609375 35.09765625 C20.84609375 35.75765625 19.19609375 36.41765625 17.49609375 37.09765625 C17.49609375 37.75765625 17.49609375 38.41765625 17.49609375 39.09765625 C14.85609375 39.75765625 12.21609375 40.41765625 9.49609375 41.09765625 C9.49609375 41.75765625 9.49609375 42.41765625 9.49609375 43.09765625 C5.20609375 43.09765625 0.91609375 43.09765625 -3.50390625 43.09765625 C-3.83390625 40.45765625 -4.16390625 37.81765625 -4.50390625 35.09765625 C-5.49390625 35.59265625 -5.49390625 35.59265625 -6.50390625 36.09765625 C-8.50350637 36.13764825 -10.50437867 36.14112424 -12.50390625 36.09765625 C-17.07533482 28.81194196 -17.07533482 28.81194196 -16.50390625 24.09765625 C-14.52390625 23.43765625 -12.54390625 22.77765625 -10.50390625 22.09765625 C-10.50390625 21.43765625 -10.50390625 20.77765625 -10.50390625 20.09765625 C-11.28765625 19.78828125 -12.07140625 19.47890625 -12.87890625 19.16015625 C-15.50390625 18.09765625 -15.50390625 18.09765625 -17.50390625 17.09765625 C-16.97275519 12.58287227 -15.13770333 9.75098768 -12.50390625 6.09765625 C-9.35653443 6.79707221 -6.47801749 7.85844323 -3.50390625 9.09765625 C-3.52453125 7.79828125 -3.54515625 6.49890625 -3.56640625 5.16015625 C-3.58790079 3.80599992 -3.57538824 2.45009542 -3.50390625 1.09765625 C-2.50390625 0.09765625 -2.50390625 0.09765625 0 0 Z " fill="#7E90E2" transform="translate(130.50390625,72.90234375)"/>
<path d="M0 0 C2.475 0.99 2.475 0.99 5 2 C5 2.66 5 3.32 5 4 C6.65 4 8.3 4 10 4 C9.43454163 7.95820859 8.19097652 10.6659053 6 14 C2.26512223 13.5020163 0.18762365 13.12508244 -3 11 C-3.33 13.97 -3.66 16.94 -4 20 C-7.3 20 -10.6 20 -14 20 C-14 14.72 -14 9.44 -14 4 C-12.68 3.34 -11.36 2.68 -10 2 C-10 2.66 -10 3.32 -10 4 C-9.34 4 -8.68 4 -8 4 C-8 3.34 -8 2.68 -8 2 C-5.69 2 -3.38 2 -1 2 C-0.67 1.34 -0.34 0.68 0 0 Z " fill="#526CE6" transform="translate(192,94)"/>
<path d="M0 0 C1.43836751 0.11458693 2.87570966 0.24209116 4.3125 0.375 C5.51326172 0.47941406 5.51326172 0.47941406 6.73828125 0.5859375 C9 1 9 1 12 3 C11.47731534 5.76276177 10.89130413 8.3260876 10 11 C9.34 11 8.68 11 8 11 C8 11.66 8 12.32 8 13 C4.65626525 12.44271087 1.96687001 11.64826111 -1 10 C-1.144375 11.299375 -1.28875 12.59875 -1.4375 13.9375 C-1.875 17.875 -1.875 17.875 -3 19 C-4.68608966 19.07205511 -6.37500659 19.08386068 -8.0625 19.0625 C-8.98160156 19.05347656 -9.90070313 19.04445313 -10.84765625 19.03515625 C-11.55792969 19.02355469 -12.26820313 19.01195313 -13 19 C-13.36031186 13.93561658 -13.51967498 10.09709163 -11.3125 5.4375 C-9 3 -9 3 -6.5 2.0625 C-4.09405231 2.00235131 -2.27447037 2.24184321 0 3 C0 2.01 0 1.02 0 0 Z " fill="#5067D8" transform="translate(288,95)"/>
<path d="M0 0 C0.495 1.98 0.495 1.98 1 4 C1.99 4 2.98 4 4 4 C4.09891077 9.76573685 4.17148845 15.5309794 4.21972656 21.29736328 C4.23983632 23.25871381 4.26712818 25.22000444 4.30175781 27.18115234 C4.35030421 30.00112695 4.37297486 32.82030865 4.390625 35.640625 C4.41127014 36.51680481 4.43191528 37.39298462 4.45318604 38.29571533 C4.45348816 39.11626404 4.45379028 39.93681274 4.45410156 40.78222656 C4.46298401 41.50170471 4.47186646 42.22118286 4.48101807 42.96246338 C3.76958037 45.97603077 2.44066027 47.14539036 0 49 C-2.63150024 49.49447632 -2.63150024 49.49447632 -5.65478516 49.48583984 C-6.78921051 49.4919931 -7.92363586 49.49814636 -9.09243774 49.50448608 C-10.31232391 49.49011505 -11.53221008 49.47574402 -12.7890625 49.4609375 C-14.04383392 49.46002106 -15.29860535 49.45910461 -16.59140015 49.4581604 C-19.24312694 49.45211824 -21.89345968 49.43850887 -24.54492188 49.41162109 C-27.9458805 49.37757175 -31.34624538 49.36999469 -34.74735451 49.37151146 C-37.99048273 49.37083764 -41.23348604 49.35316891 -44.4765625 49.3359375 C-45.70049713 49.33371185 -46.92443176 49.33148621 -48.18545532 49.32919312 C-49.87763687 49.31005356 -49.87763687 49.31005356 -51.60400391 49.29052734 C-52.60009674 49.28290375 -53.59618958 49.27528015 -54.62246704 49.26742554 C-57 49 -57 49 -59 47 C-57.92338104 46.98786972 -57.92338104 46.98786972 -56.82501221 46.97549438 C-50.05668489 46.89751209 -43.28853483 46.81021036 -36.52046585 46.71247292 C-33.04102811 46.66255436 -29.56162007 46.61622418 -26.08203125 46.578125 C-22.08053553 46.53415337 -18.07940584 46.47452029 -14.078125 46.4140625 C-12.83009094 46.40251129 -11.58205688 46.39096008 -10.29620361 46.37905884 C-9.13530212 46.35918915 -7.97440063 46.33931946 -6.77832031 46.31884766 C-5.24609833 46.29886215 -5.24609833 46.29886215 -3.68292236 46.2784729 C-0.98082921 45.99801018 0.68691598 45.3832761 3 44 C2.505 42.02 2.505 42.02 2 40 C1.34 40 0.68 40 0 40 C0 26.8 0 13.6 0 0 Z " fill="#D6525A" transform="translate(94,71)"/>
<path d="M0 0 C0.99 0.33 1.98 0.66 3 1 C3.88351406 6.92579127 4.07286924 12.55015252 3.87890625 18.53125 C3.84348976 19.84603333 3.84348976 19.84603333 3.80735779 21.18737793 C3.73141968 23.95844615 3.64709955 26.72918407 3.5625 29.5 C3.50920918 31.3906094 3.4564694 33.28123441 3.40429688 35.171875 C3.27590041 39.78145502 3.13999144 44.39075814 3 49 C2.34 49 1.68 49 1 49 C0.79375 49.5775 0.5875 50.155 0.375 50.75 C-1.54787607 53.89652448 -3.61919982 55.63743839 -7 57 C-11.28234686 57.55216811 -15.52444041 57.46517622 -19.8359375 57.390625 C-21.07042633 57.38496521 -22.30491516 57.37930542 -23.57681274 57.37347412 C-27.50994042 57.35112875 -31.44214881 57.30093247 -35.375 57.25 C-38.0455596 57.22767659 -40.71611055 57.21168254 -43.38671875 57.1953125 C-49.92479149 57.15126972 -56.46233006 57.08437431 -63 57 C-63 56.34 -63 55.68 -63 55 C-44.52 55 -26.04 55 -7 55 C-7 54.34 -7 53.68 -7 53 C-6.21625 52.79375 -5.4325 52.5875 -4.625 52.375 C-1.81368564 51.23817245 -1.81368564 51.23817245 -0.84814453 48.56591797 C0.27461183 43.84542878 0.2476545 39.40441491 0.1953125 34.5703125 C0.19106766 33.084814 0.19106766 33.084814 0.18673706 31.56930542 C0.1755847 28.42107824 0.15048907 25.27314051 0.125 22.125 C0.11496382 19.98437912 0.10583908 17.84375376 0.09765625 15.703125 C0.07566158 10.46865203 0.04223333 5.2343467 0 0 Z " fill="#F2F7F8" transform="translate(103,71)"/>
<path d="M0 0 C0.66 0 1.32 0 2 0 C2.01458252 1.30146973 2.02916504 2.60293945 2.04418945 3.94384766 C2.10228934 8.78591992 2.17952191 13.62753285 2.26245117 18.46923828 C2.29564549 20.56226124 2.32369445 22.65537253 2.34643555 24.74853516 C2.38008231 27.76242612 2.43240393 30.77551163 2.48828125 33.7890625 C2.49467117 34.72054108 2.5010611 35.65201965 2.50764465 36.61172485 C2.62403831 41.78900713 3.06918572 45.53977229 6 50 C12.59229636 53.29614818 22.25235 52.1954695 29.4765625 52.31640625 C30.52782318 52.33718735 31.57908386 52.35796844 32.66220093 52.37937927 C35.98307477 52.44417236 39.30401995 52.50342928 42.625 52.5625 C44.89193413 52.60575221 47.15886134 52.6493685 49.42578125 52.69335938 C54.9504479 52.79978049 60.47518372 52.90167024 66 53 C66 53.33 66 53.66 66 54 C58.39371676 54.02319967 50.78743719 54.04095394 43.18112659 54.05181217 C39.64897726 54.05702433 36.11685218 54.06409164 32.5847168 54.07543945 C28.52131928 54.08841195 24.45794714 54.093242 20.39453125 54.09765625 C19.1297847 54.10281754 17.86503815 54.10797882 16.56196594 54.11329651 C15.38111923 54.11337204 14.20027252 54.11344757 12.98364258 54.11352539 C11.94661697 54.115746 10.90959137 54.11796661 9.84114075 54.12025452 C7.12049128 54.00509993 4.64843958 53.61402376 2 53 C-1.23493912 43.32079866 -1.40426066 34.10047245 -1.28125 24.02416992 C-1.24968169 21.41115219 -1.24022597 18.79873778 -1.234375 16.18554688 C-1.22521865 14.51822177 -1.21484729 12.85090279 -1.203125 11.18359375 C-1.19887512 10.40551865 -1.19462524 9.62744354 -1.19024658 8.82579041 C-1.14771587 5.63039172 -1.01752622 3.05257865 0 0 Z " fill="#E6F2EF" transform="translate(30,72)"/>
<path d="M0 0 C2.80362763 -0.22732116 4.46186517 -0.34081872 6.875 1.1875 C8 3 8 3 7.875 5.4375 C6.96102274 8.1141477 5.82469613 9.85796542 4 12 C1.03 11.34 -1.94 10.68 -5 10 C-4.979375 11.299375 -4.95875 12.59875 -4.9375 13.9375 C-4.91600546 15.29165633 -4.92851801 16.64756083 -5 18 C-6 19 -6 19 -8.28515625 19.09765625 C-9.65994141 19.08025391 -9.65994141 19.08025391 -11.0625 19.0625 C-11.98160156 19.05347656 -12.90070313 19.04445313 -13.84765625 19.03515625 C-14.55792969 19.02355469 -15.26820313 19.01195313 -16 19 C-16 17.02 -16 15.04 -16 13 C-15.34 13 -14.68 13 -14 13 C-14 11.35 -14 9.7 -14 8 C-6.57142857 5.85714286 -6.57142857 5.85714286 -3 5 C-3 4.01 -3 3.02 -3 2 C-2.01 2 -1.02 2 0 2 C0 1.34 0 0.68 0 0 Z " fill="#5C76DD" transform="translate(243,96)"/>
<path d="M0 0 C5.41390868 0.46671627 9.20517932 1.24297811 14 4 C14 5.65 14 7.3 14 9 C14.66 9 15.32 9 16 9 C16.2475 9.5775 16.495 10.155 16.75 10.75 C17.89739852 13.11818252 17.89739852 13.11818252 20.0703125 14.79296875 C22.53797308 17.6152931 22.3701094 18.88095682 22.125 22.5625 C21.90128474 28.62518367 22.69759653 34.09266998 24 40 C21.0625 39.1875 21.0625 39.1875 18 38 C16.89518505 34.68555515 16.82255036 31.98815784 16.6875 28.5 C16.31480389 22.51201576 15.13563256 17.63234026 12.83984375 12.109375 C12 10 12 10 12 8 C11.34 8 10.68 8 10 8 C10 7.34 10 6.68 10 6 C9.46375 5.731875 8.9275 5.46375 8.375 5.1875 C5.58333333 3.79166667 2.79166667 2.39583333 0 1 C0 0.67 0 0.34 0 0 Z " fill="#DEE8EE" transform="translate(74,31)"/>
<path d="M0 0 C3.96 0 7.92 0 12 0 C12 0.33 12 0.66 12 1 C8.37 1 4.74 1 1 1 C1.60909915 5.10804341 1.60909915 5.10804341 2.8125 9.0625 C3 11 3 11 1.1875 13.6875 C-1 16 -1 16 -3 17 C-2.34 17.33 -1.68 17.66 -1 18 C-1.33 19.32 -1.66 20.64 -2 22 C-3.65 22 -5.3 22 -7 22 C-7 21.34 -7 20.68 -7 20 C-8.175625 19.566875 -8.175625 19.566875 -9.375 19.125 C-12 18 -12 18 -14 16 C-13.76236269 11.60370982 -11.85856441 9.22741144 -9 6 C-5.59687262 7.05875074 -2.98646769 8.00902154 0 10 C0 6.7 0 3.4 0 0 Z " fill="#6781F6" transform="translate(225,73)"/>
<path d="M0 0 C1.63286295 2.88021804 2.25375731 4.95859319 2.2746582 8.26196289 C2.28419022 9.09284927 2.29372223 9.92373566 2.30354309 10.77980042 C2.30263168 11.66844284 2.30172028 12.55708527 2.30078125 13.47265625 C2.30506638 14.39211533 2.3093515 15.3115744 2.31376648 16.25889587 C2.31950216 18.19968849 2.32001565 20.1405026 2.31567383 22.08129883 C2.31250775 25.05522079 2.3360035 28.02815367 2.36132812 31.00195312 C2.36360053 32.88801958 2.36430489 34.77408871 2.36328125 36.66015625 C2.372491 37.55082291 2.38170074 38.44148956 2.39118958 39.35914612 C2.38496078 40.18688034 2.37873199 41.01461456 2.37231445 41.86743164 C2.37294388 42.59483047 2.3735733 43.32222931 2.3742218 44.07167053 C1.86850281 46.67759257 1.19480533 47.5046143 -1 49 C-3.71452332 49.36076355 -3.71452332 49.36076355 -7.03198242 49.34057617 C-8.89357246 49.34023628 -8.89357246 49.34023628 -10.79277039 49.33988953 C-12.14700684 49.32456968 -13.50123961 49.3089217 -14.85546875 49.29296875 C-16.2412317 49.28737251 -17.62700059 49.28310254 -19.01277161 49.28010559 C-22.65762764 49.26865883 -26.30212423 49.23919358 -29.94683838 49.20599365 C-33.66698342 49.17528885 -37.38718661 49.16159941 -41.10742188 49.14648438 C-48.40511167 49.11432331 -55.70250544 49.06312951 -63 49 C-63 48.34 -63 47.68 -63 47 C-61.90125801 47.00999275 -61.90125801 47.00999275 -60.78031921 47.02018738 C-53.87943197 47.08028233 -46.9785838 47.12596617 -40.07750225 47.15543652 C-36.52950064 47.17109693 -32.98171513 47.19234151 -29.43383789 47.22631836 C-25.35561033 47.26513007 -21.27760999 47.27970602 -17.19921875 47.29296875 C-15.92414963 47.30845261 -14.64908051 47.32393646 -13.33537292 47.33988953 C-12.15437515 47.34011612 -10.97337738 47.34034271 -9.7565918 47.34057617 C-8.19439156 47.35056892 -8.19439156 47.35056892 -6.60063171 47.36076355 C-3.99572892 47.19546029 -3.99572892 47.19546029 -2.16723633 45.75244141 C-0.70916779 43.56335629 -0.60518597 42.24198079 -0.56762695 39.62036133 C-0.54783279 38.73967484 -0.52803864 37.85898834 -0.50764465 36.95161438 C-0.49805977 35.53117073 -0.49805977 35.53117073 -0.48828125 34.08203125 C-0.47033005 33.10965012 -0.45237885 32.13726898 -0.43388367 31.13542175 C-0.37967533 28.02782536 -0.34585102 24.92038348 -0.3125 21.8125 C-0.27933624 19.70635866 -0.24484747 17.60023773 -0.20898438 15.49414062 C-0.12394269 10.32953839 -0.05718159 5.16498281 0 0 Z " fill="#BFB9B2" transform="translate(98,72)"/>
<path d="M0 0 C3.0625 0.3125 3.0625 0.3125 4.9375 1.4375 C6.56781294 4.15468824 6.39265665 6.20902746 6.0625 9.3125 C5.4025 9.9725 4.7425 10.6325 4.0625 11.3125 C3.60243654 13.51500992 3.60243654 13.51500992 3.4375 15.9375 C3.36273438 16.75476563 3.28796875 17.57203125 3.2109375 18.4140625 C3.16195312 19.04054688 3.11296875 19.66703125 3.0625 20.3125 C1.4125 20.6425 -0.2375 20.9725 -1.9375 21.3125 C-1.9375 18.0125 -1.9375 14.7125 -1.9375 11.3125 C-2.5975 11.3125 -3.2575 11.3125 -3.9375 11.3125 C-5.9375 8.3125 -5.9375 8.3125 -5.6875 5.25 C-4.69210355 1.35136391 -4.04786381 0.43062381 0 0 Z " fill="#803326" transform="translate(64.9375,86.6875)"/>
<path d="M0 0 C2.97 0.66 5.94 1.32 9 2 C9 3.98 9 5.96 9 8 C8.01 8.33 7.02 8.66 6 9 C5.67 9.99 5.34 10.98 5 12 C1.47930015 11.41321669 -0.71299843 10.64350079 -4 9 C-4.33 11.97 -4.66 14.94 -5 18 C-8.3 18 -11.6 18 -15 18 C-15 17.67 -15 17.34 -15 17 C-13.35 17 -11.7 17 -10 17 C-10.0928125 15.1128125 -10.0928125 15.1128125 -10.1875 13.1875 C-10.16934383 10.62294156 -10.1515987 9.28536227 -8.9375 7 C-5.97912322 5.47309585 -3.26283401 5.81531128 0 6 C0 4.02 0 2.04 0 0 Z " fill="#4665DD" transform="translate(144,96)"/>
<path d="M0 0 C0 0.66 0 1.32 0 2 C-0.66 2 -1.32 2 -2 2 C-2.33 2.99 -2.66 3.98 -3 5 C-4.6396875 5.7425 -4.6396875 5.7425 -6.3125 6.5 C-10.66036423 8.89667106 -11.76318204 11.95738318 -13.2265625 16.56640625 C-14.49154787 22.18217461 -15.07196786 27.84511191 -15.60546875 33.5703125 C-16 37 -16 37 -17 38 C-19.33297433 38.04092937 -21.66705225 38.04241723 -24 38 C-23.01 37.505 -23.01 37.505 -22 37 C-22 36.34 -22 35.68 -22 35 C-21.34 35 -20.68 35 -20 35 C-19.90203125 33.96101563 -19.8040625 32.92203125 -19.703125 31.8515625 C-18.73458942 22.48005274 -17.78511092 13.70581358 -11.6875 6.125 C-3.94117647 0 -3.94117647 0 0 0 Z " fill="#ECD4CF" transform="translate(59,31)"/>
<path d="M0 0 C2.475 0.99 2.475 0.99 5 2 C5 2.66 5 3.32 5 4 C6.65 4 8.3 4 10 4 C9.43454163 7.95820859 8.19097652 10.6659053 6 14 C1.88654141 13.53256152 -1.11139055 13.11081018 -4 10 C-4.25 7.3125 -4.25 7.3125 -4 5 C-4.66 5 -5.32 5 -6 5 C-6 4.01 -6 3.02 -6 2 C-4.35 2 -2.7 2 -1 2 C-0.67 1.34 -0.34 0.68 0 0 Z " fill="#4D67DC" transform="translate(192,94)"/>
<path d="M0 0 C0.66 0.33 1.32 0.66 2 1 C1.6875 3.875 1.6875 3.875 1 7 C-2.39121242 9.26080828 -3.56573096 9.25246265 -7.54125977 9.25878906 C-9.24301109 9.26824554 -9.24301109 9.26824554 -10.97914124 9.27789307 C-12.20418869 9.2738446 -13.42923615 9.26979614 -14.69140625 9.265625 C-16.57568581 9.26849518 -16.57568581 9.26849518 -18.49803162 9.27142334 C-21.15532169 9.27278533 -23.81224472 9.27008981 -26.46948242 9.26074219 C-29.87827773 9.24933608 -33.28675851 9.25591677 -36.69554234 9.26788712 C-39.94417503 9.27684251 -43.19276946 9.27057717 -46.44140625 9.265625 C-48.28201378 9.27169769 -48.28201378 9.27169769 -50.1598053 9.27789307 C-51.85682838 9.26843658 -51.85682838 9.26843658 -53.58813477 9.25878906 C-54.5872438 9.25719788 -55.58635284 9.25560669 -56.61573792 9.25396729 C-59 9 -59 9 -61 7 C-59.92338104 6.98786972 -59.92338104 6.98786972 -58.82501221 6.97549438 C-52.05668489 6.89751209 -45.28853483 6.81021036 -38.52046585 6.71247292 C-35.04102811 6.66255436 -31.56162007 6.61622418 -28.08203125 6.578125 C-24.08053553 6.53415337 -20.07940584 6.47452029 -16.078125 6.4140625 C-14.83009094 6.40251129 -13.58205688 6.39096008 -12.29620361 6.37905884 C-11.13530212 6.35918915 -9.97440063 6.33931946 -8.77832031 6.31884766 C-7.24609833 6.29886215 -7.24609833 6.29886215 -5.68292236 6.2784729 C-2.98082921 5.99801018 -1.31308402 5.3832761 1 4 C0.505 2.02 0.505 2.02 0 0 Z " fill="#B44A46" transform="translate(96,111)"/>
<path d="M0 0 C0 3.3 0 6.6 0 10 C3.63 10 7.26 10 11 10 C11 6.7 11 3.4 11 0 C12.093125 0.495 13.18625 0.99 14.3125 1.5 C17.79966245 3.18839906 17.79966245 3.18839906 21 3 C22.68798827 1.56249809 22.68798827 1.56249809 24 0 C24.495 1.98 24.495 1.98 25 4 C23.35 4.66 21.7 5.32 20 6 C20 6.66 20 7.32 20 8 C17.36 8.66 14.72 9.32 12 10 C12 10.66 12 11.32 12 12 C7.71 12 3.42 12 -1 12 C-1.33 9.36 -1.66 6.72 -2 4 C-2.99 4.495 -2.99 4.495 -4 5 C-5.99960012 5.039992 -8.00047242 5.04346799 -10 5 C-10.33 3.68 -10.66 2.36 -11 1 C-10.34 1.66 -9.68 2.32 -9 3 C-6.41645782 3.16687448 -6.41645782 3.16687448 -4 3 C-4 2.34 -4 1.68 -4 1 C-2 0 -2 0 0 0 Z " fill="#A3B8DB" transform="translate(128,104)"/>
<path d="M0 0 C0.66 0.33 1.32 0.66 2 1 C1.68289062 1.99 1.36578125 2.98 1.0390625 4 C-0.67416833 10.85292331 -0.47198834 17.97580832 -0.625 25 C-0.66324966 26.45705282 -0.70230527 27.91408471 -0.7421875 29.37109375 C-0.83742506 32.91386926 -0.92172897 36.4568043 -1 40 C-0.34 40.33 0.32 40.66 1 41 C-0.98 41.495 -0.98 41.495 -3 42 C-4.53521713 38.92956574 -4.20460647 35.69571396 -4.23828125 32.32421875 C-4.246353 31.56204544 -4.25442474 30.79987213 -4.26274109 30.01460266 C-4.27657975 28.39981357 -4.28730289 26.78499526 -4.29516602 25.17016602 C-4.31236192 22.70727667 -4.35624507 20.24573594 -4.40039062 17.78320312 C-4.41051935 16.21355153 -4.41903489 14.64388853 -4.42578125 13.07421875 C-4.44328934 12.34071701 -4.46079742 11.60721527 -4.47883606 10.85148621 C-4.45812244 5.93857826 -3.44749917 3.48588528 0 0 Z " fill="#E56C7E" transform="translate(39,72)"/>
<path d="M0 0 C2.375 0.3125 2.375 0.3125 5 1 C9.57195856 7.85793784 8 17.19068659 8 25 C-5.2 25 -18.4 25 -32 25 C-32 24.67 -32 24.34 -32 24 C-20.12 24 -8.24 24 4 24 C3.68491052 11.00729047 3.68491052 11.00729047 0 0 Z " fill="#E6B7B7" transform="translate(80,44)"/>
<path d="M0 0 C0 0.33 0 0.66 0 1 C-1.21236328 1.14695313 -1.21236328 1.14695313 -2.44921875 1.296875 C-10.68484116 2.18736739 -10.68484116 2.18736739 -17 7 C-21.79209597 15.07435348 -21.77378786 23.88365063 -22 33 C-22.99 33 -23.98 33 -25 33 C-25.08156437 30.14524694 -25.14076372 27.29286435 -25.1875 24.4375 C-25.21263672 23.63763672 -25.23777344 22.83777344 -25.26367188 22.01367188 C-25.33054885 16.55205195 -24.4909519 12.87075897 -22 8 C-21.34 8 -20.68 8 -20 8 C-19.814375 7.443125 -19.62875 6.88625 -19.4375 6.3125 C-14.55321646 -1.54482569 -8.51649269 -1.55545346 0 0 Z " fill="#B8615F" transform="translate(69,36)"/>
<path d="M0 0 C3.10342773 1.60176915 3.76902408 3.80206592 4.9375 7 C4.625 9.875 4.625 9.875 3.9375 12 C1.6275 12 -0.6825 12 -3.0625 12 C-3.0625 12.66 -3.0625 13.32 -3.0625 14 C-3.7225 14 -4.3825 14 -5.0625 14 C-5.3925 14.66 -5.7225 15.32 -6.0625 16 C-6.0625 11.38 -6.0625 6.76 -6.0625 2 C-2.0625 0 -2.0625 0 0 0 Z " fill="#566DE9" transform="translate(246.0625,79)"/>
<path d="M0 0 C0.33 0 0.66 0 1 0 C1 5.28 1 10.56 1 16 C-9.89 16 -20.78 16 -32 16 C-32.33 11.71 -32.66 7.42 -33 3 C-31.68 2.34 -30.36 1.68 -29 1 C-29.33 5.29 -29.66 9.58 -30 14 C-20.43 13.67 -10.86 13.34 -1 13 C-0.505 6.565 -0.505 6.565 0 0 Z " fill="#ECE2E2" transform="translate(83,52)"/>
<path d="M0 0 C0.33 0 0.66 0 1 0 C0.48041715 4.37934119 -0.05675742 8.68803391 -1 13 C-2.98567708 13.22786458 -4.97135417 13.45572917 -6.95703125 13.68359375 C-9.19396393 13.97170735 -9.19396393 13.97170735 -12 15 C-12 15.66 -12 16.32 -12 17 C-14.31 17.66 -16.62 18.32 -19 19 C-19 18.34 -19 17.68 -19 17 C-17.35 16.67 -15.7 16.34 -14 16 C-14 12.37 -14 8.74 -14 5 C-13.0925 5.495 -12.185 5.99 -11.25 6.5 C-7.99126962 8.27937212 -7.99126962 8.27937212 -4 8 C-2.68 5.36 -1.36 2.72 0 0 Z " fill="#E4F2F0" transform="translate(202,99)"/>
<path d="M0 0 C0.78375 0.474375 1.5675 0.94875 2.375 1.4375 C10.11992778 4.77583094 19.15100538 4.17703247 27.4765625 4.31640625 C28.52782318 4.33718735 29.57908386 4.35796844 30.66220093 4.37937927 C33.98307477 4.44417236 37.30401995 4.50342928 40.625 4.5625 C42.89193413 4.60575221 45.15886134 4.6493685 47.42578125 4.69335938 C52.9504479 4.79978049 58.47518372 4.90167024 64 5 C64 5.33 64 5.66 64 6 C56.39371676 6.02319967 48.78743719 6.04095394 41.18112659 6.05181217 C37.64897726 6.05702433 34.11685218 6.06409164 30.5847168 6.07543945 C26.52131928 6.08841195 22.45794714 6.093242 18.39453125 6.09765625 C17.1297847 6.10281754 15.86503815 6.10797882 14.56196594 6.11329651 C13.38111923 6.11337204 12.20027252 6.11344757 10.98364258 6.11352539 C9.94661697 6.115746 8.90959137 6.11796661 7.84114075 6.12025452 C5.12049128 6.00509993 2.64843958 5.61402376 0 5 C0 3.35 0 1.7 0 0 Z " fill="#E6F4F3" transform="translate(32,120)"/>
<path d="M0 0 C3.96 0 7.92 0 12 0 C12 0.33 12 0.66 12 1 C8.37 1 4.74 1 1 1 C1 4.3 1 7.6 1 11 C-1.24609375 10.96744792 -3.4921875 10.93489583 -5.73828125 10.90234375 C-8.16861334 10.90342145 -8.16861334 10.90342145 -11 12 C-11 13.65 -11 15.3 -11 17 C-9.68 16.67 -8.36 16.34 -7 16 C-7 16.66 -7 17.32 -7 18 C-6.34 18.33 -5.68 18.66 -5 19 C-6.6875 19.75 -6.6875 19.75 -9 20 C-11.75 18.0625 -11.75 18.0625 -14 16 C-13.43454163 12.04179141 -12.19097652 9.3340947 -10 6 C-6.04179141 6.56545837 -3.3340947 7.80902348 0 10 C0 6.7 0 3.4 0 0 Z " fill="#8697E4" transform="translate(176,73)"/>
<path d="M0 0 C1.98 0 3.96 0 6 0 C6.33 0.99 6.66 1.98 7 3 C7.66 3.33 8.32 3.66 9 4 C8.34 4.66 7.68 5.32 7 6 C6.60235737 7.98821313 6.26224651 9.98944339 6 12 C4.8553125 12.2165625 4.8553125 12.2165625 3.6875 12.4375 C0.91827092 12.9632594 0.91827092 12.9632594 -2 14 C-2.04254356 12.00045254 -2.04080783 9.99958364 -2 8 C-1.67 7.67 -1.34 7.34 -1 7 C-0.63239269 4.67182036 -0.29758419 2.3381615 0 0 Z " fill="#5D78E8" transform="translate(276,76)"/>
<path d="M0 0 C1.32 0.33 2.64 0.66 4 1 C4.45732667 6.71658336 3.52273754 9.48649253 0 14 C-3.52069985 13.41321669 -5.71299843 12.64350079 -9 11 C-9 14.3 -9 17.6 -9 21 C-14.94 20.01 -14.94 20.01 -21 19 C-21 18.67 -21 18.34 -21 18 C-18.03 17.67 -15.06 17.34 -12 17 C-11.67 14.36 -11.34 11.72 -11 9 C-8.03 9.33 -5.06 9.66 -2 10 C0.56388043 6.44727895 0.56388043 6.44727895 0.6875 2.1875 C0.3471875 1.1046875 0.3471875 1.1046875 0 0 Z " fill="#CBDCE8" transform="translate(249,97)"/>
<path d="M0 0 C0.66 1.32 1.32 2.64 2 4 C-8.30104278 5.93024054 -18.36331795 6.41254178 -28.8125 6.625 C-30.39129479 6.66329742 -31.97007131 6.70235536 -33.54882812 6.7421875 C-37.36573237 6.83686651 -41.1827333 6.92134621 -45 7 C-45.33 6.34 -45.66 5.68 -46 5 C-44.081875 4.90912109 -44.081875 4.90912109 -42.125 4.81640625 C-40.4166589 4.73192784 -38.70832599 4.64728359 -37 4.5625 C-36.16082031 4.52318359 -35.32164063 4.48386719 -34.45703125 4.44335938 C-30.61015315 4.24952443 -26.81482936 4.00940803 -23 3.46875 C-18.33376063 2.84028642 -13.70066255 2.89056558 -9 2.9375 C-8.12988281 2.94201172 -7.25976562 2.94652344 -6.36328125 2.95117188 C-4.24215707 2.9628264 -2.1210689 2.98075643 0 3 C0 2.01 0 1.02 0 0 Z " fill="#E07886" transform="translate(91,66)"/>
<path d="M0 0 C0.75 1.625 0.75 1.625 1 4 C-0.9375 7.25 -0.9375 7.25 -3 10 C-6.73487777 9.5020163 -8.81237635 9.12508244 -12 7 C-12 6.34 -12 5.68 -12 5 C-10.68 5 -9.36 5 -8 5 C-8 3.68 -8 2.36 -8 1 C-5.07175348 0.02391783 -3.04386724 -0.08226668 0 0 Z " fill="#4361DB" transform="translate(250,98)"/>
<path d="M0 0 C1.65 0 3.3 0 5 0 C5.33 1.32 5.66 2.64 6 4 C6.33 3.34 6.66 2.68 7 2 C7.33 2.33 7.66 2.66 8 3 C8.66 2.34 9.32 1.68 10 1 C10 3.97 10 6.94 10 10 C6.7 10 3.4 10 0 10 C0 6.7 0 3.4 0 0 Z " fill="#4A65D1" transform="translate(178,104)"/>
<path d="M0 0 C3.12482562 -0.08687496 6.24934246 -0.14034568 9.375 -0.1875 C10.70917969 -0.22520508 10.70917969 -0.22520508 12.0703125 -0.26367188 C13.34648437 -0.27817383 13.34648437 -0.27817383 14.6484375 -0.29296875 C15.82672119 -0.31653442 15.82672119 -0.31653442 17.02880859 -0.34057617 C17.67930176 -0.22818604 18.32979492 -0.1157959 19 0 C19.66 0.99 20.32 1.98 21 3 C20.34 3 19.68 3 19 3 C19.83333333 5.16666667 19.83333333 5.16666667 22 6 C17.05 8.475 17.05 8.475 12 11 C11.67 7.7 11.34 4.4 11 1 C7.37 1 3.74 1 0 1 C0 0.67 0 0.34 0 0 Z " fill="#E4EDF8" transform="translate(128,72)"/>
<path d="M0 0 C7.875 0.875 7.875 0.875 9 2 C9.04063832 3.66617115 9.042721 5.33388095 9 7 C3.69379126 8.08289974 0.08722439 7.89524046 -5 6 C-5.66 5.34 -6.32 4.68 -7 4 C-5.68 4 -4.36 4 -3 4 C-2.67 3.34 -2.34 2.68 -2 2 C-1.34 2 -0.68 2 0 2 C0 1.34 0 0.68 0 0 Z " fill="#4F66E4" transform="translate(144,83)"/>
<path d="M0 0 C0.99 0.66 1.98 1.32 3 2 C2.01 2.33 1.02 2.66 0 3 C0 3.66 0 4.32 0 5 C0.99 5.33 1.98 5.66 3 6 C1.35 6.66 -0.3 7.32 -2 8 C-2 8.66 -2 9.32 -2 10 C-2.66 10 -3.32 10 -4 10 C-3.67 11.98 -3.34 13.96 -3 16 C-3.66 16.33 -4.32 16.66 -5 17 C-5 16.34 -5 15.68 -5 15 C-5.99 14.67 -6.98 14.34 -8 14 C-8.33 11.69 -8.66 9.38 -9 7 C-7.02 6.34 -5.04 5.68 -3 5 C-3 4.01 -3 3.02 -3 2 C-2.01 2 -1.02 2 0 2 C0 1.34 0 0.68 0 0 Z " fill="#7288E6" transform="translate(123,90)"/>
<path d="M0 0 C3.78611227 0.54087318 5.55400767 2.11722332 8 5 C8 5.66 8 6.32 8 7 C8.99 7.33 9.98 7.66 11 8 C15.39489757 14.34818538 14.10787267 23.70061597 14 31 C13.34 31 12.68 31 12 31 C11.91697632 30.11477661 11.91697632 30.11477661 11.83227539 29.21166992 C11.57932313 26.53658792 11.320973 23.86205397 11.0625 21.1875 C10.97548828 20.25873047 10.88847656 19.32996094 10.79882812 18.37304688 C10.71181641 17.48037109 10.62480469 16.58769531 10.53515625 15.66796875 C10.456604 14.84578857 10.37805176 14.0236084 10.29711914 13.17651367 C10.04448955 10.82512578 10.04448955 10.82512578 9 8 C8.05125 7.690625 7.1025 7.38125 6.125 7.0625 C2.71440927 5.90289915 1.73481463 5.0841149 0 2 C0 1.34 0 0.68 0 0 Z " fill="#D0837F" transform="translate(76,37)"/>
<path d="M0 0 C1.65 0.33 3.3 0.66 5 1 C5.66 3.97 6.32 6.94 7 10 C3.14243493 12.15305957 0.44870215 13.39253254 -4 13 C-3.67 12.34 -3.34 11.68 -3 11 C-0.9375 10.375 -0.9375 10.375 1 10 C0.2575 9.3503125 0.2575 9.3503125 -0.5 8.6875 C-2 7 -2 7 -2 4 C-1.34 3.67 -0.68 3.34 0 3 C0 2.01 0 1.02 0 0 Z " fill="#4B6ADB" transform="translate(293,80)"/>
<path d="M0 0 C0 1.98 0 3.96 0 6 C-3.75608363 7.82438348 -5.98949808 8.30070333 -10 7 C-10.66 6.34 -11.32 5.68 -12 5 C-11.375 3.0625 -11.375 3.0625 -10 1 C-6.54536666 0.0987913 -3.58088792 0 0 0 Z " fill="#5E7DE7" transform="translate(128,84)"/>
<path d="M0 0 C1.22589844 0.15275391 1.22589844 0.15275391 2.4765625 0.30859375 C3.41628906 0.43427734 3.41628906 0.43427734 4.375 0.5625 C4.354375 1.696875 4.33375 2.83125 4.3125 4 C3.95922523 7.37825674 3.95922523 7.37825674 5.375 8.5625 C5.41563832 10.22867115 5.417721 11.89638095 5.375 13.5625 C4.385 13.2325 3.395 12.9025 2.375 12.5625 C1.6875 10.5 1.6875 10.5 1.375 8.5625 C0.715 8.5625 0.055 8.5625 -0.625 8.5625 C-0.625 6.9125 -0.625 5.2625 -0.625 3.5625 C-1.429375 3.43875 -2.23375 3.315 -3.0625 3.1875 C-3.908125 2.98125 -4.75375 2.775 -5.625 2.5625 C-5.955 1.9025 -6.285 1.2425 -6.625 0.5625 C-4.10446405 -0.69776798 -2.7707902 -0.35624445 0 0 Z " fill="#F0F7F1" transform="translate(88.625,31.4375)"/>
<path d="M0 0 C1.98 0.99 3.96 1.98 6 3 C4.68 3.33 3.36 3.66 2 4 C2 6.97 2 9.94 2 13 C-2.29 13 -6.58 13 -11 13 C-11 12.01 -11 11.02 -11 10 C-7.7 9.67 -4.4 9.34 -1 9 C-0.67 6.03 -0.34 3.06 0 0 Z " fill="#B8D0DB" transform="translate(286,104)"/>
<path d="M0 0 C0.66 0 1.32 0 2 0 C2 12.54 2 25.08 2 38 C2.66 38.33 3.32 38.66 4 39 C3.01 41.97 2.02 44.94 1 48 C-0.32 47.67 -1.64 47.34 -3 47 C-1.515 46.505 -1.515 46.505 0 46 C0 30.82 0 15.64 0 0 Z " fill="#C7DAD2" transform="translate(99,74)"/>
<path d="M0 0 C2.0625 0.4375 2.0625 0.4375 4 1 C3.51176758 1.49765869 3.02353516 1.99531738 2.52050781 2.50805664 C0.44161544 5.91513025 0.60637464 9.00237872 0.671875 12.87109375 C0.67374817 13.63043716 0.67562134 14.38978058 0.67755127 15.1721344 C0.68426095 16.77503868 0.69815401 18.37792689 0.71875 19.98071289 C0.74984671 22.42544913 0.75971882 24.86953883 0.765625 27.31445312 C0.77479855 28.8750078 0.78517544 30.43555597 0.796875 31.99609375 C0.80112488 32.72332138 0.80537476 33.45054901 0.80975342 34.19981384 C0.86169946 37.91665132 1.11892493 41.38432569 2 45 C0.02 45.495 0.02 45.495 -2 46 C-1.88269799 39.60947614 -1.75786229 33.21913192 -1.62768555 26.82885742 C-1.58426493 24.65311047 -1.54259529 22.47732786 -1.50268555 20.30151367 C-1.44515498 17.18136832 -1.38141177 14.06140367 -1.31640625 10.94140625 C-1.29969376 9.96224747 -1.28298126 8.98308868 -1.26576233 7.97425842 C-1.24581711 7.07340012 -1.22587189 6.17254181 -1.20532227 5.24438477 C-1.18977798 4.44718521 -1.1742337 3.64998566 -1.15821838 2.82862854 C-1 1 -1 1 0 0 Z " fill="#EC8091" transform="translate(35,72)"/>
<path d="M0 0 C0.33 1.32 0.66 2.64 1 4 C-0.65 4.66 -2.3 5.32 -4 6 C-4 6.66 -4 7.32 -4 8 C-6.64 8.66 -9.28 9.32 -12 10 C-12 7.36 -12 4.72 -12 2 C-11.38511719 2.10699219 -10.77023438 2.21398437 -10.13671875 2.32421875 C-8.92435547 2.50404297 -8.92435547 2.50404297 -7.6875 2.6875 C-6.88699219 2.81511719 -6.08648437 2.94273438 -5.26171875 3.07421875 C-2.90350321 3.22742807 -2.90350321 3.22742807 -1.20703125 1.51953125 C-0.80871094 1.01808594 -0.41039062 0.51664062 0 0 Z " fill="#D8E7F4" transform="translate(152,104)"/>
<path d="M0 0 C4.455 0.99 4.455 0.99 9 2 C9 3.98 9 5.96 9 8 C8.01 8.33 7.02 8.66 6 9 C5.67 9.99 5.34 10.98 5 12 C1.65626525 11.44271087 -1.03312999 10.64826111 -4 9 C-4 8.34 -4 7.68 -4 7 C-2.68 7 -1.36 7 0 7 C0 7.66 0 8.32 0 9 C1.32 9.33 2.64 9.66 4 10 C4.33 8.02 4.66 6.04 5 4 C3.68 4 2.36 4 1 4 C0.67 2.68 0.34 1.36 0 0 Z " fill="#4F62CF" transform="translate(144,96)"/>
<path d="M0 0 C1.98 0.99 1.98 0.99 4 2 C4 2.66 4 3.32 4 4 C4.66 4 5.32 4 6 4 C6.64995297 5.41478135 7.29478722 6.83191487 7.9375 8.25 C8.29714844 9.03890625 8.65679687 9.8278125 9.02734375 10.640625 C10.48911707 14.18645265 11.12669557 17.27618445 11.09765625 21.109375 C11.09443359 21.86347656 11.09121094 22.61757813 11.08789062 23.39453125 C11.07951172 24.17183594 11.07113281 24.94914062 11.0625 25.75 C11.05798828 26.54277344 11.05347656 27.33554687 11.04882812 28.15234375 C11.03708565 30.10159508 11.01915146 32.05080738 11 34 C10.01 33.67 9.02 33.34 8 33 C8.66 33 9.32 33 10 33 C9.72128836 29.91535226 9.4247659 26.83266721 9.125 23.75 C9.04636719 22.87730469 8.96773437 22.00460938 8.88671875 21.10546875 C8.76103516 19.83896484 8.76103516 19.83896484 8.6328125 18.546875 C8.55949707 17.77182617 8.48618164 16.99677734 8.41064453 16.19824219 C7.96375636 13.80598234 7.26607916 12.07425115 6 10 C5.34 9.67 4.68 9.34 4 9 C4 8.34 4 7.68 4 7 C3.34 7 2.68 7 2 7 C1.34 4.69 0.68 2.38 0 0 Z " fill="#B37170" transform="translate(80,35)"/>
<path d="M0 0 C2.47045803 3.81615468 2.43831912 7.84744248 2.625 12.25 C2.66367188 12.99507812 2.70234375 13.74015625 2.7421875 14.5078125 C2.83605108 16.3381524 2.91909718 18.16904143 3 20 C3.66 20 4.32 20 5 20 C5.66 21.65 6.32 23.3 7 25 C4.0625 24.1875 4.0625 24.1875 1 23 C-0.33684341 18.98946978 -0.40162427 15.13893471 -0.625 10.9375 C-0.6765625 10.10927734 -0.728125 9.28105469 -0.78125 8.42773438 C-0.82507813 7.63560547 -0.86890625 6.84347656 -0.9140625 6.02734375 C-0.9548291 5.30281006 -0.9955957 4.57827637 -1.03759766 3.83178711 C-1 2 -1 2 0 0 Z " fill="#CCCAC1" transform="translate(91,46)"/>
<path d="M0 0 C4.95 0 9.9 0 15 0 C15 0.33 15 0.66 15 1 C13.35 1.33 11.7 1.66 10 2 C10 2.33 10 2.66 10 3 C8.948125 3.11214844 8.948125 3.11214844 7.875 3.2265625 C-0.3751114 4.36992033 -5.17888252 7.17888252 -11 13 C-10.9375 10.75 -10.9375 10.75 -10 8 C-7.78068511 6.39140567 -5.44534103 5.26633732 -3 4 C-2.67 3.34 -2.34 2.68 -2 2 C-1.34 2 -0.68 2 0 2 C0 1.34 0 0.68 0 0 Z " fill="#C6857E" transform="translate(59,31)"/>
<path d="M0 0 C0.99 0.33 1.98 0.66 3 1 C3.33 2.98 3.66 4.96 4 7 C4.7425 6.484375 5.485 5.96875 6.25 5.4375 C9 4 9 4 11.1875 4.0625 C13.54189724 5.28029168 14.06045053 6.57283053 15 9 C13.68 9 12.36 9 11 9 C9.88431641 9.05220703 9.88431641 9.05220703 8.74609375 9.10546875 C7.60333984 9.14607422 7.60333984 9.14607422 6.4375 9.1875 C5.67308594 9.22230469 4.90867188 9.25710937 4.12109375 9.29296875 C2 9 2 9 0.203125 7.6875 C-1 6 -1 6 -0.6875 2.8125 C-0.460625 1.884375 -0.23375 0.95625 0 0 Z " fill="#637BCD" transform="translate(137,75)"/>
<path d="M0 0 C2.64 0 5.28 0 8 0 C8 0.99 8 1.98 8 3 C-5.86 3 -19.72 3 -34 3 C-34 2.67 -34 2.34 -34 2 C-22.78 2 -11.56 2 0 2 C0 1.34 0 0.68 0 0 Z " fill="#CF4D56" transform="translate(80,115)"/>
<path d="M0 0 C3.96 0 7.92 0 12 0 C12 0.33 12 0.66 12 1 C8.37 1 4.74 1 1 1 C1.53725895 4.37705625 2.11064623 7.696686 3 11 C1.02 11.66 -0.96 12.32 -3 13 C-3.66 11.68 -4.32 10.36 -5 9 C-5.99 9.33 -6.98 9.66 -8 10 C-8.66 9.67 -9.32 9.34 -10 9 C-9.67 8.01 -9.34 7.02 -9 6 C-5.59687262 7.05875074 -2.98646769 8.00902154 0 10 C0 6.7 0 3.4 0 0 Z " fill="#8090DC" transform="translate(225,73)"/>
<path d="M0 0 C0.99 0.33 1.98 0.66 3 1 C3 1.66 3 2.32 3 3 C6.465 4.485 6.465 4.485 10 6 C9.01 7.485 9.01 7.485 8 9 C5.375 9.1875 5.375 9.1875 3 9 C3 9.66 3 10.32 3 11 C2.34 11 1.68 11 1 11 C0.67 11.66 0.34 12.32 0 13 C0 8.71 0 4.42 0 0 Z " fill="#4B66DB" transform="translate(240,82)"/>
<path d="M0 0 C2.64 0 5.28 0 8 0 C8.625 2.3125 8.625 2.3125 9 5 C8.01 6.485 8.01 6.485 7 8 C7 6.35 7 4.7 7 3 C6.34 3 5.68 3 5 3 C5.33 5.97 5.66 8.94 6 12 C2.99472353 10.49736177 3.02782386 8.08347159 2 5 C1.34 4.67 0.68 4.34 0 4 C0 2.68 0 1.36 0 0 Z " fill="#6278F1" transform="translate(227,75)"/>
<path d="M0 0 C9.86634265 0.85054678 9.86634265 0.85054678 14 4 C15.90974767 8.63795862 16.21683193 12.13267229 15 17 C14.01 14.03 13.02 11.06 12 8 C11.34 8 10.68 8 10 8 C10 7.34 10 6.68 10 6 C9.46375 5.731875 8.9275 5.46375 8.375 5.1875 C5.58333333 3.79166667 2.79166667 2.39583333 0 1 C0 0.67 0 0.34 0 0 Z " fill="#DED2D0" transform="translate(74,31)"/>
<path d="M0 0 C0.33 0 0.66 0 1 0 C1 1.98 1 3.96 1 6 C-0.65 6.33 -2.3 6.66 -4 7 C-3.67 8.32 -3.34 9.64 -3 11 C-5.31 10.67 -7.62 10.34 -10 10 C-10 9.34 -10 8.68 -10 8 C-10.99 7.67 -11.98 7.34 -13 7 C-11.39743892 6.49487756 -9.79288208 5.99608373 -8.1875 5.5 C-6.84751953 5.08234375 -6.84751953 5.08234375 -5.48046875 4.65625 C-3 4 -3 4 0 4 C0 2.68 0 1.36 0 0 Z " fill="#5B6FD9" transform="translate(153,86)"/>
<path d="M0 0 C2 3 2 3 1.625 6.1875 C1.41875 7.115625 1.2125 8.04375 1 9 C0.34 9 -0.32 9 -1 9 C-1 13.29 -1 17.58 -1 22 C-0.34 22.33 0.32 22.66 1 23 C-0.32 22.67 -1.64 22.34 -3 22 C-3.30372936 13.99054432 -3.50848663 7.30934715 0 0 Z " fill="#CCC0BF" transform="translate(50,45)"/>
<path d="M0 0 C0.33 0 0.66 0 1 0 C1.01981934 1.18553467 1.03963867 2.37106934 1.06005859 3.5925293 C1.13625789 8.00029367 1.22495323 12.4077341 1.31738281 16.81518555 C1.35561339 18.72104486 1.39047655 20.62697487 1.421875 22.53295898 C1.46765422 25.27613553 1.5256273 28.01882788 1.5859375 30.76171875 C1.59748871 31.61086349 1.60903992 32.46000824 1.62094116 33.33488464 C1.72809982 37.65178187 2.00657333 41.06560527 4 45 C3.01 44.67 2.02 44.34 1 44 C-0.14315747 41.71368506 -0.12112732 40.45652594 -0.11352539 37.91748047 C-0.11344986 37.07675995 -0.11337433 36.23603943 -0.11329651 35.36984253 C-0.10813522 34.46146637 -0.10297394 33.55309021 -0.09765625 32.6171875 C-0.0962413 31.68778351 -0.09482635 30.75837952 -0.09336853 29.80081177 C-0.08776053 26.82550876 -0.07520668 23.85028036 -0.0625 20.875 C-0.05748603 18.86067817 -0.05292295 16.84635516 -0.04882812 14.83203125 C-0.0377885 9.88799198 -0.02051849 4.94400865 0 0 Z " fill="#EADCDB" transform="translate(31,76)"/>
<path d="M0 0 C2.87874663 1.43937332 3.68235793 3.10118744 5 6 C5.5 8.625 5.5 8.625 5 11 C2.8125 12.875 2.8125 12.875 0 14 C-2.8125 13.6875 -2.8125 13.6875 -5 13 C-2.35261084 11.5393715 -1.10551666 11 2 11 C2.33 9.35 2.66 7.7 3 6 C2.01 6 1.02 6 0 6 C0 4.68 0 3.36 0 2 C-1.65 2.33 -3.3 2.66 -5 3 C-2.6 0 -2.6 0 0 0 Z " fill="#4B66C2" transform="translate(197,79)"/>
<path d="M0 0 C3.63 0 7.26 0 11 0 C12.35439668 2.70879335 12.06501451 5.00933268 12 8 C12.66 8 13.32 8 14 8 C13.67 9.32 13.34 10.64 13 12 C11.35 11.67 9.7 11.34 8 11 C8.33 7.7 8.66 4.4 9 1 C6.36 1 3.72 1 1 1 C0.67 2.32 0.34 3.64 0 5 C0 3.35 0 1.7 0 0 Z " fill="#677CD0" transform="translate(226,74)"/>
<path d="M0 0 C0.99 0.33 1.98 0.66 3 1 C2.65066406 1.44730469 2.30132812 1.89460938 1.94140625 2.35546875 C-0.68898628 5.85023956 -2.59207142 8.51278557 -3 13 C-3.99 13 -4.98 13 -6 13 C-6.33 10.03 -6.66 7.06 -7 4 C-4 2 -4 2 -1 2 C-0.67 1.34 -0.34 0.68 0 0 Z " fill="#F9FAF7" transform="translate(214,78)"/>
<path d="M0 0 C3.63 0 7.26 0 11 0 C11 0.33 11 0.66 11 1 C8.36 1.33 5.72 1.66 3 2 C3 2.99 3 3.98 3 5 C3.66 5.33 4.32 5.66 5 6 C4.01 6 3.02 6 2 6 C2 7.32 2 8.64 2 10 C2.66 10 3.32 10 4 10 C3.67 11.32 3.34 12.64 3 14 C2.01 13.67 1.02 13.34 0 13 C0 8.71 0 4.42 0 0 Z " fill="#657CE3" transform="translate(177,74)"/>
<path d="M0 0 C10.12830608 0.19208856 10.12830608 0.19208856 13.5625 3.375 C14.036875 4.24125 14.51125 5.1075 15 6 C15.99 7.485 15.99 7.485 17 9 C16.625 11.1875 16.625 11.1875 16 13 C15.73574219 12.40445313 15.47148438 11.80890625 15.19921875 11.1953125 C12.97157213 7.11734052 9.28755635 3.93984873 4.984375 2.171875 C3.34278114 1.7047548 1.67229095 1.34128387 0 1 C0 0.67 0 0.34 0 0 Z " fill="#CFDBD7" transform="translate(66,39)"/>
<path d="M0 0 C0 0.66 0 1.32 0 2 C-0.66 2 -1.32 2 -2 2 C-2.33 2.99 -2.66 3.98 -3 5 C-4.6396875 5.7425 -4.6396875 5.7425 -6.3125 6.5 C-10.11084876 8.46951417 -11.02360624 10.78295997 -12.4375 14.75 C-12.98262806 16.49258508 -13.51163248 18.24066361 -14 20 C-15.5313237 15.5693701 -14.27446302 12.67090493 -12.515625 8.484375 C-10.0062976 4.37114762 -5.0680695 0 0 0 Z " fill="#E7AEA9" transform="translate(59,31)"/>
<path d="M0 0 C1 2 1 2 1 6 C2.65 6.33 4.3 6.66 6 7 C6 8.98 6 10.96 6 13 C5.34 13 4.68 13 4 13 C4 12.34 4 11.68 4 11 C2.824375 10.566875 2.824375 10.566875 1.625 10.125 C-1 9 -1 9 -3 7 C-2.67028521 3.70285207 -2.3773161 2.3773161 0 0 Z " fill="#7F90DE" transform="translate(214,82)"/>
<path d="M0 0 C0.33 0 0.66 0 1 0 C1 2.31 1 4.62 1 7 C1.7425 6.484375 2.485 5.96875 3.25 5.4375 C6 4 6 4 8.3125 4.3125 C8.869375 4.539375 9.42625 4.76625 10 5 C9.01 5 8.02 5 7 5 C7.33 6.65 7.66 8.3 8 10 C7.01 9.67 6.02 9.34 5 9 C5 9.66 5 10.32 5 11 C5.66 11.33 6.32 11.66 7 12 C6.01 12.33 5.02 12.66 4 13 C2 11.5625 2 11.5625 0 9 C-0.35442445 5.97175582 -0.23347235 3.03514061 0 0 Z " fill="#6B82D8" transform="translate(286,75)"/>
<path d="M0 0 C0 1.32 0 2.64 0 4 C0.99 4 1.98 4 3 4 C2.67 5.65 2.34 7.3 2 9 C0.125 9.625 0.125 9.625 -2 10 C-2.66 9.34 -3.32 8.68 -4 8 C-3.625 4.875 -3.625 4.875 -3 2 C-4.65 2.66 -6.3 3.32 -8 4 C-8 3.34 -8 2.68 -8 2 C-5.09399739 0.74335022 -3.20395416 0 0 0 Z " fill="#5069E2" transform="translate(197,81)"/>
<path d="M0 0 C0.99 0.33 1.98 0.66 3 1 C2.67 1.928125 2.34 2.85625 2 3.8125 C0.85032996 6.92029291 0.85032996 6.92029291 1 10 C0.34 10.66 -0.32 11.32 -1 12 C-1.33 10.68 -1.66 9.36 -2 8 C-2.66 8 -3.32 8 -4 8 C-4.33 6.35 -4.66 4.7 -5 3 C-2.6875 1.4375 -2.6875 1.4375 0 0 Z " fill="#7589E4" transform="translate(216,95)"/>
<path d="M0 0 C3.96 0 7.92 0 12 0 C12 0.66 12 1.32 12 2 C8.7 2.33 5.4 2.66 2 3 C2 5.31 2 7.62 2 10 C1.01 10.495 1.01 10.495 0 11 C0 7.37 0 3.74 0 0 Z " fill="#7E89E7" transform="translate(274,73)"/>
<path d="M0 0 C2.1640625 0.0234375 2.1640625 0.0234375 4.625 0.375 C5.85089844 0.54128906 5.85089844 0.54128906 7.1015625 0.7109375 C7.72804688 0.80632812 8.35453125 0.90171875 9 1 C10.80230168 4.82989106 11.19622241 7.78121808 11 12 C10.34 12 9.68 12 9 12 C8.67 9.36 8.34 6.72 8 4 C6.1128125 3.938125 6.1128125 3.938125 4.1875 3.875 C3.47980469 3.85179688 2.77210937 3.82859375 2.04296875 3.8046875 C-0.31359719 3.86745538 -0.31359719 3.86745538 -3 6 C-2.42655063 3.13275314 -2.1385485 2.1385485 0 0 Z " fill="#D06366" transform="translate(62,84)"/>
<path d="M0 0 C0.33 1.65 0.66 3.3 1 5 C0.01 5.33 -0.98 5.66 -2 6 C-2.33 6.99 -2.66 7.98 -3 9 C-3.66 9 -4.32 9 -5 9 C-5 8.01 -5 7.02 -5 6 C-5.66 6 -6.32 6 -7 6 C-7 5.34 -7 4.68 -7 4 C-6.34 4 -5.68 4 -5 4 C-5.33 3.01 -5.66 2.02 -6 1 C-3 0 -3 0 0 0 Z " fill="#5C78EB" transform="translate(126,96)"/>
<path d="M0 0 C1.32 0 2.64 0 4 0 C4.98248524 4.0527516 5.08159574 7.83861737 5 12 C3.35 12.66 1.7 13.32 0 14 C0 14.66 0 15.32 0 16 C-0.66 16 -1.32 16 -2 16 C-2 14.68 -2 13.36 -2 12 C-0.68 11.34 0.64 10.68 2 10 C1.46274105 6.62294375 0.88935377 3.303314 0 0 Z " fill="#CDDEE9" transform="translate(248,80)"/>
<path d="M0 0 C1.95901454 0.11382653 3.9172338 0.24141125 5.875 0.375 C6.96554688 0.44460937 8.05609375 0.51421875 9.1796875 0.5859375 C12 1 12 1 14 3 C13.01 3.02578125 12.02 3.0515625 11 3.078125 C3.5069706 3.36730303 -2.5110822 3.89476629 -9 8 C-9.33 7.34 -9.66 6.68 -10 6 C-9.01 6 -8.02 6 -7 6 C-7 5.34 -7 4.68 -7 4 C-4.69 3.01 -2.38 2.02 0 1 C0 0.67 0 0.34 0 0 Z " fill="#E8DCDD" transform="translate(58,28)"/>
<path d="M0 0 C1.32 0 2.64 0 4 0 C3.43454163 3.95820859 2.19097652 6.6659053 0 10 C-4.1666604 9.52651586 -6.92884715 8.95303159 -10 6 C-10 5.34 -10 4.68 -10 4 C-9.34 4 -8.68 4 -8 4 C-8 4.66 -8 5.32 -8 6 C-5.6739143 6.38063221 -3.33944736 6.71269945 -1 7 C0.35618499 5.87465895 0.35618499 5.87465895 0.0625 2.9375 C0.041875 1.968125 0.02125 0.99875 0 0 Z " fill="#4D63B7" transform="translate(198,98)"/>
<path d="M0 0 C1.98 0.99 3.96 1.98 6 3 C5.67 3.99 5.34 4.98 5 6 C3.33927151 6.68132451 1.672233 7.34742127 0 8 C-0.66 8.99 -1.32 9.98 -2 11 C-1.67 8.69 -1.34 6.38 -1 4 C-1.66 4 -2.32 4 -3 4 C-3 3.34 -3 2.68 -3 2 C-2.01 2 -1.02 2 0 2 C0 1.34 0 0.68 0 0 Z " fill="#E7F0F2" transform="translate(261,90)"/>
<path d="M0 0 C1.32 0 2.64 0 4 0 C4.33 0.99 4.66 1.98 5 3 C3.06745228 5.0245738 1.36841312 6.42105792 -1 8 C-1.99 8 -2.98 8 -4 8 C-4 6.35 -4 4.7 -4 3 C-3.01 3 -2.02 3 -1 3 C-0.67 2.01 -0.34 1.02 0 0 Z " fill="#5774E7" transform="translate(171,100)"/>
<path d="M0 0 C1.32 0 2.64 0 4 0 C4 0.66 4 1.32 4 2 C4.928125 2.1546875 4.928125 2.1546875 5.875 2.3125 C8 3 8 3 10 6 C9.67 6.99 9.34 7.98 9 9 C6.03 8.505 6.03 8.505 3 8 C3 6.02 3 4.04 3 2 C2.01 1.67 1.02 1.34 0 1 C0 0.67 0 0.34 0 0 Z " fill="#DFE9EF" transform="translate(150,96)"/>
<path d="M0 0 C0.99 0.66 1.98 1.32 3 2 C3.328125 4.34765625 3.328125 4.34765625 3.25 7.0625 C3.23453125 7.96097656 3.2190625 8.85945313 3.203125 9.78515625 C3 12 3 12 2 13 C-0.33297433 13.04092937 -2.66705225 13.04241723 -5 13 C-4.34 12.67 -3.68 12.34 -3 12 C-3 11.34 -3 10.68 -3 10 C-2.34 10 -1.68 10 -1 10 C-0.67 6.7 -0.34 3.4 0 0 Z " fill="#E9C9C4" transform="translate(40,56)"/>
<path d="M0 0 C0.125 7.75 0.125 7.75 -1 10 C-3.97 10 -6.94 10 -10 10 C-9.01 9.67 -8.02 9.34 -7 9 C-7 8.34 -7 7.68 -7 7 C-5.68 6.67 -4.36 6.34 -3 6 C-3.33 4.35 -3.66 2.7 -4 1 C-1 0 -1 0 0 0 Z " fill="#445ECC" transform="translate(237,104)"/>
<path d="M0 0 C0.02689216 1.47906892 0.04634621 2.95827483 0.0625 4.4375 C0.07410156 5.26121094 0.08570313 6.08492188 0.09765625 6.93359375 C0 9 0 9 -1 10 C-3.67058851 10.14115161 -6.32432238 10.04247107 -9 10 C-9 9.67 -9 9.34 -9 9 C-7.35 9 -5.7 9 -4 9 C-4.2475 8.2575 -4.495 7.515 -4.75 6.75 C-5 4 -5 4 -3.125 1.6875 C-1 0 -1 0 0 0 Z " fill="#4562CB" transform="translate(286,104)"/>
<path d="M0 0 C0.99 0 1.98 0 3 0 C3 0.99 3 1.98 3 3 C3.66 3 4.32 3 5 3 C5 5.97 5 8.94 5 12 C3.02 12.33 1.04 12.66 -1 13 C-0.67 12.01 -0.34 11.02 0 10 C0.99 10 1.98 10 3 10 C2.01 6.7 1.02 3.4 0 0 Z " fill="#C8D9EB" transform="translate(297,80)"/>
<path d="M0 0 C2.64 0 5.28 0 8 0 C8 1.65 8 3.3 8 5 C7.67 4.34 7.34 3.68 7 3 C5.68 3 4.36 3 3 3 C3 3.66 3 4.32 3 5 C2.01 5.495 2.01 5.495 1 6 C1 6.99 1 7.98 1 9 C0.34 9 -0.32 9 -1 9 C-0.67 6.03 -0.34 3.06 0 0 Z " fill="#617BF4" transform="translate(129,75)"/>
<path d="M0 0 C0.66 0 1.32 0 2 0 C2 2.97 2 5.94 2 9 C0.68 9.33 -0.64 9.66 -2 10 C-2 10.66 -2 11.32 -2 12 C-3.65 12.33 -5.3 12.66 -7 13 C-7 11.02 -7 9.04 -7 7 C-6.34 7 -5.68 7 -5 7 C-5 7.99 -5 8.98 -5 10 C-2.37842577 8.40406384 -2.37842577 8.40406384 0 6 C0.41809201 2.83151973 0.41809201 2.83151973 0 0 Z " fill="#5972D5" transform="translate(126,95)"/>
<path d="M0 0 C1.32 0.66 2.64 1.32 4 2 C4 3.65 4 5.3 4 7 C2.02 7.99 2.02 7.99 0 9 C-0.99 8.01 -1.98 7.02 -3 6 C-2.34 5.67 -1.68 5.34 -1 5 C-0.34444881 2.47266765 -0.34444881 2.47266765 0 0 Z " fill="#455FE1" transform="translate(195,97)"/>
<path d="M0 0 C2.4375 0.375 2.4375 0.375 5 1 C5.33 1.66 5.66 2.32 6 3 C4.35 2.67 2.7 2.34 1 2 C1.33 2.99 1.66 3.98 2 5 C1.34 5 0.68 5 0 5 C0 5.99 0 6.98 0 8 C-0.66 8 -1.32 8 -2 8 C-1.67 9.32 -1.34 10.64 -1 12 C-1.99 11.34 -2.98 10.68 -4 10 C-3.43454163 6.04179141 -2.19097652 3.3340947 0 0 Z " fill="#8595E8" transform="translate(264,79)"/>
<path d="M0 0 C0.66 0 1.32 0 2 0 C2.02703381 1.93742341 2.04641125 3.87495479 2.0625 5.8125 C2.07410156 6.89144531 2.08570313 7.97039063 2.09765625 9.08203125 C2 12 2 12 1 15 C-0.62332967 16.38576923 -2.28724465 17.72641268 -4 19 C-3.67 17.02 -3.34 15.04 -3 13 C-2.34 13 -1.68 13 -1 13 C-0.67 8.71 -0.34 4.42 0 0 Z " fill="#F2F0F5" transform="translate(36,53)"/>
<path d="M0 0 C0 0.99 0 1.98 0 3 C-5.75 6 -5.75 6 -8 6 C-8 6.66 -8 7.32 -8 8 C-8.66 8 -9.32 8 -10 8 C-9.1875 4.5625 -9.1875 4.5625 -8 1 C-5.07175348 0.02391783 -3.04386724 -0.08226668 0 0 Z " fill="#D7E2E7" transform="translate(64,40)"/>
<path d="M0 0 C0.309375 0.680625 0.61875 1.36125 0.9375 2.0625 C2.79612983 4.24225528 2.79612983 4.24225528 5.203125 4.04296875 C7.4902021 3.77326626 9.73903835 3.43607646 12 3 C11.34 4.98 10.68 6.96 10 9 C1.98357822 7.03370787 1.98357822 7.03370787 0 4 C0 2.68 0 1.36 0 0 Z " fill="#C5D3E7" transform="translate(213,103)"/>
<path d="M0 0 C2 1 2 1 4 5 C8.455 4.505 8.455 4.505 13 4 C12.34 5.32 11.68 6.64 11 8 C4.57429353 8.36371923 4.57429353 8.36371923 2.125 6.8125 C0.73770965 4.5774211 0.35012787 2.59094622 0 0 Z " fill="#BDCFE1" transform="translate(163,102)"/>
<path d="M0 0 C5.75731895 2.44992296 5.75731895 2.44992296 6.9375 5.125 C6.958125 5.74375 6.97875 6.3625 7 7 C6 8 6 8 3.4375 8.0625 C2.633125 8.041875 1.82875 8.02125 1 8 C0.67 7.01 0.34 6.02 0 5 C0.33 4.34 0.66 3.68 1 3 C0.34 2.67 -0.32 2.34 -1 2 C-0.67 1.34 -0.34 0.68 0 0 Z " fill="#5C73F4" transform="translate(175,85)"/>
<path d="M0 0 C0.33 0 0.66 0 1 0 C0.48041715 4.37934119 -0.05675742 8.68803391 -1 13 C-2.65 12.67 -4.3 12.34 -6 12 C-6.33 11.01 -6.66 10.02 -7 9 C-6.01 8.67 -5.02 8.34 -4 8 C-2.76722873 6.13977928 -2.76722873 6.13977928 -1.8125 3.9375 C-1.46832031 3.20402344 -1.12414062 2.47054687 -0.76953125 1.71484375 C-0.51558594 1.14894531 -0.26164063 0.58304687 0 0 Z " fill="#BFCAE4" transform="translate(202,99)"/>
<path d="M0 0 C0.99 0.33 1.98 0.66 3 1 C1.35 2.32 -0.3 3.64 -2 5 C-1.34 5.33 -0.68 5.66 0 6 C-0.33 7.32 -0.66 8.64 -1 10 C-1.99 10 -2.98 10 -4 10 C-4.66 7.36 -5.32 4.72 -6 2 C-4.68 1.67 -3.36 1.34 -2 1 C-1.34 0.67 -0.68 0.34 0 0 Z " fill="#607BEE" transform="translate(224,85)"/>
<path d="M0 0 C2.375 0.3125 2.375 0.3125 5 1 C7 4 7 4 7 8 C6.34 8 5.68 8 5 8 C4.67 9.32 4.34 10.64 4 12 C2.66666667 8 1.33333333 4 0 0 Z " fill="#DDB1AD" transform="translate(80,44)"/>
<path d="M0 0 C0.79921875 0.00902344 1.5984375 0.01804687 2.421875 0.02734375 C3.02515625 0.03894531 3.6284375 0.05054687 4.25 0.0625 C4.25 0.7225 4.25 1.3825 4.25 2.0625 C1.54816945 3.41341528 -0.86808206 3.40108058 -3.875 3.625 C-4.97070312 3.70878906 -6.06640625 3.79257813 -7.1953125 3.87890625 C-8.03835937 3.93949219 -8.88140625 4.00007813 -9.75 4.0625 C-9.42 3.0725 -9.09 2.0825 -8.75 1.0625 C-5.8585914 -0.0569613 -3.07237388 -0.04518197 0 0 Z " fill="#CE5C61" transform="translate(43.75,114.9375)"/>
<path d="M0 0 C0.66 0.33 1.32 0.66 2 1 C1.46930939 4.82097239 0.50298434 7.06171403 -2 10 C-5.73487777 9.5020163 -7.81237635 9.12508244 -11 7 C-11 6.34 -11 5.68 -11 5 C-10.2575 5.350625 -9.515 5.70125 -8.75 6.0625 C-6.13915313 7.11764154 -6.13915313 7.11764154 -3.8125 7 C-1.64767535 6.05310809 -1.64767535 6.05310809 -0.75 2.9375 C-0.37875 1.4834375 -0.37875 1.4834375 0 0 Z " fill="#4B64B5" transform="translate(249,98)"/>
<path d="M0 0 C1.32 0 2.64 0 4 0 C4 2.97 4 5.94 4 9 C2.68 9 1.36 9 0 9 C0 6.03 0 3.06 0 0 Z " fill="#4D6AEB" transform="translate(278,104)"/>
<path d="M0 0 C2.475 0.99 2.475 0.99 5 2 C4.01 2.495 4.01 2.495 3 3 C3 3.66 3 4.32 3 5 C4.32 5.66 5.64 6.32 7 7 C4 9 4 9 1 9 C0.67 6.03 0.34 3.06 0 0 Z " fill="#D3E6F4" transform="translate(188,73)"/>
<path d="M0 0 C1.94566808 2.91850212 2.5152457 4.57622848 3.1875 7.9375 C3.36667969 8.79214844 3.54585938 9.64679687 3.73046875 10.52734375 C4.00123705 13.01134859 3.77059444 14.64449502 3 17 C3 16.34 3 15.68 3 15 C2.34 15 1.68 15 1 15 C-0.03590199 9.94997778 -0.10251672 5.12583611 0 0 Z " fill="#D6E3E2" transform="translate(93,51)"/>
<path d="M0 0 C0.33 0 0.66 0 1 0 C1.33 2.97 1.66 5.94 2 9 C1.01 9.33 0.02 9.66 -1 10 C-1 8.02 -1 6.04 -1 4 C-3.31 4.33 -5.62 4.66 -8 5 C-8.33 4.34 -8.66 3.68 -9 3 C-8.43410156 2.86722656 -7.86820312 2.73445313 -7.28515625 2.59765625 C-6.18494141 2.33275391 -6.18494141 2.33275391 -5.0625 2.0625 C-4.33160156 1.88847656 -3.60070312 1.71445313 -2.84765625 1.53515625 C-1.00030102 1.16112431 -1.00030102 1.16112431 0 0 Z " fill="#E5F1F5" transform="translate(273,106)"/>
<path d="M0 0 C0.33 0 0.66 0 1 0 C1.06058594 1.09699219 1.12117188 2.19398437 1.18359375 3.32421875 C1.26804498 4.77865654 1.35269066 6.23308305 1.4375 7.6875 C1.47681641 8.40873047 1.51613281 9.12996094 1.55664062 9.87304688 C1.78185678 13.66707282 2.12839305 17.28651492 3 21 C1.68 21.33 0.36 21.66 -1 22 C-0.67 14.74 -0.34 7.48 0 0 Z " fill="#E67B89" transform="translate(34,96)"/>
<path d="M0 0 C0.33 0 0.66 0 1 0 C1 2.31 1 4.62 1 7 C2.32 6.67 3.64 6.34 5 6 C5 6.66 5 7.32 5 8 C5.66 8.33 6.32 8.66 7 9 C5.3125 9.75 5.3125 9.75 3 10 C0.25 8.0625 0.25 8.0625 -2 6 C-1.125 1.125 -1.125 1.125 0 0 Z " fill="#8092DE" transform="translate(164,83)"/>
<path d="M0 0 C0.33 0 0.66 0 1 0 C1 3.3 1 6.6 1 10 C-2.3 10 -5.6 10 -9 10 C-9 9.67 -9 9.34 -9 9 C-6.36 9 -3.72 9 -1 9 C-1.33 6.69 -1.66 4.38 -2 2 C-1.34 2 -0.68 2 0 2 C0 1.34 0 0.68 0 0 Z " fill="#425EB6" transform="translate(138,104)"/>
<path d="M0 0 C0.66 0.33 1.32 0.66 2 1 C1.67 1.99 1.34 2.98 1 4 C3.31 4 5.62 4 8 4 C8 4.66 8 5.32 8 6 C1.375 7.25 1.375 7.25 -2 5 C-2 4.34 -2 3.68 -2 3 C-1.34 3 -0.68 3 0 3 C0 2.01 0 1.02 0 0 Z " fill="#6780F4" transform="translate(264,84)"/>
<path d="M0 0 C0.98484375 0.11988281 1.9696875 0.23976562 2.984375 0.36328125 C3.73203125 0.47027344 4.4796875 0.57726563 5.25 0.6875 C5.25 1.0175 5.25 1.3475 5.25 1.6875 C4.03763672 1.85185547 4.03763672 1.85185547 2.80078125 2.01953125 C1.19783203 2.25736328 1.19783203 2.25736328 -0.4375 2.5 C-1.49324219 2.65082031 -2.54898438 2.80164062 -3.63671875 2.95703125 C-6.85193753 3.71141759 -9.03100323 4.84624987 -11.75 6.6875 C-9.31991351 0.81479098 -6.23815608 -0.81690139 0 0 Z " fill="#944E4F" transform="translate(63.75,35.3125)"/>
<path d="M0 0 C1.41778293 2.83556587 0.86257622 4.9908706 0.5625 8.125 C0.46066406 9.22070312 0.35882813 10.31640625 0.25390625 11.4453125 C0.17011719 12.28835937 0.08632813 13.13140625 0 14 C-0.66 14 -1.32 14 -2 14 C-2.33 10.04 -2.66 6.08 -3 2 C-2.01 1.34 -1.02 0.68 0 0 Z " fill="#D8E4E6" transform="translate(53,53)"/>
<path d="M0 0 C0.99 0 1.98 0 3 0 C2.67 0.99 2.34 1.98 2 3 C-2.63833893 5.20873282 -6.02952038 4.99409592 -11 4 C-10.67 3.34 -10.34 2.68 -10 2 C-6.7 2 -3.4 2 0 2 C0 1.34 0 0.68 0 0 Z " fill="#F1F7EC" transform="translate(140,114)"/>
<path d="M0 0 C0.33 0 0.66 0 1 0 C1 3.3 1 6.6 1 10 C0.01 10.33 -0.98 10.66 -2 11 C-2 8.03 -2 5.06 -2 2 C-1.34 2 -0.68 2 0 2 C0 1.34 0 0.68 0 0 Z " fill="#5869D6" transform="translate(277,103)"/>
<path d="M0 0 C0.80824219 0.11085938 1.61648437 0.22171875 2.44921875 0.3359375 C3.37154297 0.47902344 3.37154297 0.47902344 4.3125 0.625 C3.3125 2.625 3.3125 2.625 1.3125 3.625 C-0.70677511 3.01921747 -2.71003397 2.35580266 -4.6875 1.625 C-5.3475 2.945 -6.0075 4.265 -6.6875 5.625 C-7.0175 4.305 -7.3475 2.985 -7.6875 1.625 C-4.33422361 -0.61051759 -3.78006343 -0.54783528 0 0 Z " fill="#6C83F7" transform="translate(172.6875,83.375)"/>
<path d="M0 0 C2.97 0.495 2.97 0.495 6 1 C6 2.32 6 3.64 6 5 C5.34 5 4.68 5 4 5 C3.67 6.32 3.34 7.64 3 9 C2.67 9 2.34 9 2 9 C1.34 6.03 0.68 3.06 0 0 Z " fill="#F4F6FA" transform="translate(98,63)"/>
<path d="M0 0 C3.79588866 0.54226981 5.47211993 2.20127563 8 5 C7.67 5.99 7.34 6.98 7 8 C3.43993751 6.1262829 1.40851871 4.84141465 0 1 C0 0.67 0 0.34 0 0 Z " fill="#D49392" transform="translate(76,37)"/>
<path d="M0 0 C0.33 0.66 0.66 1.32 1 2 C0.67 2.66 0.34 3.32 0 4 C-2.64860427 4.59355614 -5.29197322 4.74209269 -8 5 C-8 3.68 -8 2.36 -8 1 C-5.36 0.67 -2.72 0.34 0 0 Z " fill="#DF93A1" transform="translate(42,68)"/>
<path d="M0 0 C0.33 0 0.66 0 1 0 C1 2.97 1 5.94 1 9 C0.34 9 -0.32 9 -1 9 C-1 9.66 -1 10.32 -1 11 C-1.66 11 -2.32 11 -3 11 C-2.69217504 9.35328588 -2.37860766 7.70764424 -2.0625 6.0625 C-1.88847656 5.14597656 -1.71445313 4.22945313 -1.53515625 3.28515625 C-1 1 -1 1 0 0 Z " fill="#FBF0FB" transform="translate(105,111)"/>
<path d="M0 0 C0.66 0 1.32 0 2 0 C2 1.98 2 3.96 2 6 C0.02 6.99 0.02 6.99 -2 8 C-2.125 5.125 -2.125 5.125 -2 2 C-1.34 1.34 -0.68 0.68 0 0 Z " fill="#6174FA" transform="translate(276,82)"/>
<path d="M0 0 C-0.28127421 1.48117801 -0.57533732 2.95993249 -0.875 4.4375 C-1.03742188 5.26121094 -1.19984375 6.08492188 -1.3671875 6.93359375 C-1.68042969 7.95646484 -1.68042969 7.95646484 -2 9 C-2.99 9.495 -2.99 9.495 -4 10 C-5.39431504 7.21136993 -5.25660094 5.07921132 -5 2 C-2 0 -2 0 0 0 Z " fill="#EBF2FE" transform="translate(263,80)"/>
<path d="M0 0 C0.33 1.32 0.66 2.64 1 4 C-0.6875 5.625 -0.6875 5.625 -3 7 C-5.75 6.1875 -5.75 6.1875 -8 5 C-8 4.34 -8 3.68 -8 3 C-5.36 2.67 -2.72 2.34 0 2 C0 1.34 0 0.68 0 0 Z " fill="#E6F2F4" transform="translate(126,106)"/>
<path d="M0 0 C1.98 0.99 3.96 1.98 6 3 C5.01 3.66 4.02 4.32 3 5 C1.79549696 7.55183404 1.79549696 7.55183404 1 10 C0.67 10 0.34 10 0 10 C0 6.7 0 3.4 0 0 Z " fill="#A9C2CF" transform="translate(188,104)"/>
<path d="M0 0 C0 1.32 0 2.64 0 4 C-0.99 4 -1.98 4 -3 4 C-3.33 5.32 -3.66 6.64 -4 8 C-4.66 6.35 -5.32 4.7 -6 3 C-2.25 0 -2.25 0 0 0 Z " fill="#6480E3" transform="translate(170,99)"/>
<path d="M0 0 C1.98 0.99 3.96 1.98 6 3 C6 3.66 6 4.32 6 5 C2.535 6.485 2.535 6.485 -1 8 C-1.33 7.34 -1.66 6.68 -2 6 C-1.34 5.67 -0.68 5.34 0 5 C0 3.35 0 1.7 0 0 Z " fill="#E1EFF9" transform="translate(163,90)"/>
<path d="M0 0 C1.32 0 2.64 0 4 0 C4.33 1.32 4.66 2.64 5 4 C3.68 4 2.36 4 1 4 C1 4.66 1 5.32 1 6 C0.01 6 -0.98 6 -2 6 C-1.34 4.02 -0.68 2.04 0 0 Z " fill="#F7FCEE" transform="translate(159,90)"/>
<path d="M0 0 C1.27875 0.103125 2.5575 0.20625 3.875 0.3125 C4.95394531 0.39951172 4.95394531 0.39951172 6.0546875 0.48828125 C8 1 8 1 10 4 C9.67 4.99 9.34 5.98 9 7 C8.34 6.01 7.68 5.02 7 4 C5.68 4 4.36 4 3 4 C3 3.34 3 2.68 3 2 C2.01 2 1.02 2 0 2 C0 1.34 0 0.68 0 0 Z " fill="#D27773" transform="translate(72,34)"/>
<path d="M0 0 C-0.66 0.66 -1.32 1.32 -2 2 C-2.99 2 -3.98 2 -5 2 C-5 2.66 -5 3.32 -5 4 C-6.98 4.99 -6.98 4.99 -9 6 C-8.75 3.625 -8.75 3.625 -8 1 C-5.12800349 -1.17875597 -3.33791789 -1.19211353 0 0 Z " fill="#EEF8F6" transform="translate(56,30)"/>
<path d="M0 0 C0.33 0.66 0.66 1.32 1 2 C1.66 2 2.32 2 3 2 C3 4.64 3 7.28 3 10 C2.34 10 1.68 10 1 10 C-0.60725635 6.78548731 -0.05748185 3.56387464 0 0 Z " fill="#CA6361" transform="translate(60,96)"/>
<path d="M0 0 C0.33 0 0.66 0 1 0 C1 1.98 1 3.96 1 6 C-0.65 6.33 -2.3 6.66 -4 7 C-4.33 7.99 -4.66 8.98 -5 10 C-5.66 9.67 -6.32 9.34 -7 9 C-7 8.34 -7 7.68 -7 7 C-4.4385343 4.70351351 -3.52032428 4 0 4 C0 2.68 0 1.36 0 0 Z " fill="#A6BBE2" transform="translate(153,86)"/>
<path d="M0 0 C0.99 0.495 0.99 0.495 2 1 C2.6328125 3.06640625 2.6328125 3.06640625 3.125 5.5625 C3.29257812 6.38878906 3.46015625 7.21507813 3.6328125 8.06640625 C3.75398438 8.70449219 3.87515625 9.34257813 4 10 C2.68 10.33 1.36 10.66 0 11 C0 7.37 0 3.74 0 0 Z " fill="#5971C2" transform="translate(296,80)"/>
<path d="M0 0 C1.9375 1 1.9375 1 3.1875 3.5625 C3.435 4.366875 3.6825 5.17125 3.9375 6 C2.6175 6 1.2975 6 -0.0625 6 C-0.0625 4.68 -0.0625 3.36 -0.0625 2 C-1.7125 2.33 -3.3625 2.66 -5.0625 3 C-2.6625 0 -2.6625 0 0 0 Z " fill="#6073C9" transform="translate(197.0625,79)"/>
<path d="M0 0 C1.8125 0.125 1.8125 0.125 4 1 C6.10234659 4.18976724 7.10492845 6.03465831 6.6875 9.875 C6.460625 10.57625 6.23375 11.2775 6 12 C5.34 11.67 4.68 11.34 4 11 C4.33 9.35 4.66 7.7 5 6 C4.34 6 3.68 6 3 6 C2.01 4.02 1.02 2.04 0 0 Z " fill="#6073B7" transform="translate(244,79)"/>
<path d="M0 0 C1.32 0 2.64 0 4 0 C4 2.64 4 5.28 4 8 C3.34 8 2.68 8 2 8 C1.67 7.01 1.34 6.02 1 5 C0.67 5 0.34 5 0 5 C0 3.35 0 1.7 0 0 Z " fill="#586DD5" transform="translate(282,75)"/>
<path d="M0 0 C0.33 0.99 0.66 1.98 1 3 C0.34 3 -0.32 3 -1 3 C-1.103125 3.639375 -1.20625 4.27875 -1.3125 4.9375 C-1.539375 5.618125 -1.76625 6.29875 -2 7 C-2.99 7.33 -3.98 7.66 -5 8 C-5.33 7.01 -5.66 6.02 -6 5 C-4.02 3.35 -2.04 1.7 0 0 Z " fill="#C2BAB5" transform="translate(57,38)"/>
<path d="M0 0 C0.99 0.33 1.98 0.66 3 1 C3.33 2.98 3.66 4.96 4 7 C3.01 7.495 3.01 7.495 2 8 C2 7.34 2 6.68 2 6 C1.01 5.67 0.02 5.34 -1 5 C-0.67 3.35 -0.34 1.7 0 0 Z " fill="#6B7EEF" transform="translate(116,99)"/>
<path d="M0 0 C1.5 1.25 1.5 1.25 3 3 C3 4.32 3 5.64 3 7 C1.68 7 0.36 7 -1 7 C-1.04254356 5.00045254 -1.04080783 2.99958364 -1 1 C-0.67 0.67 -0.34 0.34 0 0 Z " fill="#576EEF" transform="translate(179,97)"/>
<path d="M0 0 C1.65 0 3.3 0 5 0 C5.33 0.66 5.66 1.32 6 2 C5.67 2.99 5.34 3.98 5 5 C2.69 5.33 0.38 5.66 -2 6 C-1.67 5.34 -1.34 4.68 -1 4 C1.0625 3.375 1.0625 3.375 3 3 C2.01 2.01 1.02 1.02 0 0 Z " fill="#4A62D2" transform="translate(291,87)"/>
<path d="M0 0 C1.32 0.33 2.64 0.66 4 1 C4.33 3.97 4.66 6.94 5 10 C4.34 10 3.68 10 3 10 C2.690625 8.906875 2.38125 7.81375 2.0625 6.6875 C1.41662103 4.44592006 0.7376883 2.2130649 0 0 Z " fill="#CFE2F0" transform="translate(199,80)"/>
<path d="M0 0 C0.66 0.33 1.32 0.66 2 1 C1.16855469 1.61488281 1.16855469 1.61488281 0.3203125 2.2421875 C-0.40414062 2.78101563 -1.12859375 3.31984375 -1.875 3.875 C-2.59429687 4.40867187 -3.31359375 4.94234375 -4.0546875 5.4921875 C-6.08252632 6.99873162 -6.08252632 6.99873162 -8 9 C-7.9375 6.75 -7.9375 6.75 -7 4 C-4.75412136 2.18298261 -2.67371119 1.21958756 0 0 Z " fill="#D87878" transform="translate(56,35)"/>
<path d="M0 0 C-0.33 0.66 -0.66 1.32 -1 2 C-3.64 2 -6.28 2 -9 2 C-9 1.01 -9 0.02 -9 -1 C-5.79937313 -2.60031344 -3.27728194 -1.03173691 0 0 Z " fill="#ECFCF7" transform="translate(73,26)"/>
<path d="M0 0 C1.98 0.495 1.98 0.495 4 1 C4.25 3.25 4.25 3.25 4 6 C2 8.3125 2 8.3125 0 10 C0 7 0 7 0.5625 4.4375 C1.25042261 2.00235139 1.25042261 2.00235139 0 0 Z " fill="#B0C4DE" transform="translate(249,97)"/>
<path d="M0 0 C1.32 0.33 2.64 0.66 4 1 C3.67 4.63 3.34 8.26 3 12 C2.67 12 2.34 12 2 12 C1.34 8.04 0.68 4.08 0 0 Z " fill="#4E61F2" transform="translate(184,100)"/>
<path d="M0 0 C1.32 0 2.64 0 4 0 C4 0.66 4 1.32 4 2 C6.97 2.495 6.97 2.495 10 3 C9.67 3.66 9.34 4.32 9 5 C5.65626525 4.44271087 2.96687001 3.64826111 0 2 C0 1.34 0 0.68 0 0 Z " fill="#4964BA" transform="translate(140,103)"/>
<path d="M0 0 C0 0.66 0 1.32 0 2 C1.65 2 3.3 2 5 2 C4.34 2.66 3.68 3.32 3 4 C-0.84177074 3.69670231 -3.09427672 2.47524576 -6 0 C-3.50907189 -1.24546405 -2.58919267 -0.7767578 0 0 Z " fill="#455FD9" transform="translate(292,102)"/>
<path d="M0 0 C3 3.625 3 3.625 3 7 C1.68 7 0.36 7 -1 7 C-1.04254356 5.00045254 -1.04080783 2.99958364 -1 1 C-0.67 0.67 -0.34 0.34 0 0 Z " fill="#5C6FF7" transform="translate(283,81)"/>
<path d="M0 0 C0.66 0.33 1.32 0.66 2 1 C0.35 3.64 -1.3 6.28 -3 9 C-4 5 -4 5 -3.1875 2.8125 C-2 1 -2 1 0 0 Z " fill="#E7F2F9" transform="translate(116,79)"/>
<path d="M0 0 C0.66 0.33 1.32 0.66 2 1 C0.02 3.97 0.02 3.97 -2 7 C-3.65 6.67 -5.3 6.34 -7 6 C-6.360625 5.896875 -5.72125 5.79375 -5.0625 5.6875 C-4.381875 5.460625 -3.70125 5.23375 -3 5 C-2.67 4.01 -2.34 3.02 -2 2 C-1.34 2 -0.68 2 0 2 C0 1.34 0 0.68 0 0 Z " fill="#DFEDEC" transform="translate(251,104)"/>
<path d="M0 0 C4 4.625 4 4.625 4 8 C3.01 8 2.02 8 1 8 C1 7.34 1 6.68 1 6 C0.34 6 -0.32 6 -1 6 C-0.67 4.02 -0.34 2.04 0 0 Z " fill="#F5FCEC" transform="translate(153,104)"/>
<path d="M0 0 C0.66 0.33 1.32 0.66 2 1 C0.35 2.98 -1.3 4.96 -3 7 C-3.66 6.67 -4.32 6.34 -5 6 C-4.75 4.125 -4.75 4.125 -4 2 C-2.0625 0.6875 -2.0625 0.6875 0 0 Z " fill="#8696E1" transform="translate(167,95)"/>
<path d="M0 0 C0 1.32 0 2.64 0 4 C-1.98 4.99 -1.98 4.99 -4 6 C-4.33 4.68 -4.66 3.36 -5 2 C-2 0 -2 0 0 0 Z " fill="#C8D6EA" transform="translate(202,90)"/>
<path d="M0 0 C0.99 0.33 1.98 0.66 3 1 C3 2.98 3 4.96 3 7 C2.34 7 1.68 7 1 7 C1 6.34 1 5.68 1 5 C0.34 5 -0.32 5 -1 5 C-0.67 3.35 -0.34 1.7 0 0 Z " fill="#6B89DF" transform="translate(217,88)"/>
<path d="M0 0 C0.33 0 0.66 0 1 0 C1 3.3 1 6.6 1 10 C-1.475 9.01 -1.475 9.01 -4 8 C-2.68 7.34 -1.36 6.68 0 6 C0 4.02 0 2.04 0 0 Z " fill="#D6EBFB" transform="translate(273,73)"/>
<path d="M0 0 C1.875 0.5625 1.875 0.5625 4 2 C5.25 5.625 5.25 5.625 6 9 C5.34 9 4.68 9 4 9 C4 8.34 4 7.68 4 7 C3.34 7 2.68 7 2 7 C1.34 4.69 0.68 2.38 0 0 Z " fill="#BB615F" transform="translate(80,35)"/>
<path d="M0 0 C0.5625 1.9375 0.5625 1.9375 1 4 C0 5 0 5 -3.5625 5.0625 C-4.696875 5.041875 -5.83125 5.02125 -7 5 C-6.67 4.34 -6.34 3.68 -6 3 C-5.01 3 -4.02 3 -3 3 C-1.31201173 1.56249809 -1.31201173 1.56249809 0 0 Z " fill="#B0C3DD" transform="translate(152,104)"/>
<path d="M0 0 C0.66 0 1.32 0 2 0 C1.125 4.75 1.125 4.75 0 7 C-0.66 7 -1.32 7 -2 7 C-2 5.35 -2 3.7 -2 2 C-1.34 2 -0.68 2 0 2 C0 1.34 0 0.68 0 0 Z " fill="#657FE4" transform="translate(264,96)"/>
<path d="M0 0 C1.65 0.33 3.3 0.66 5 1 C4.67 1.99 4.34 2.98 4 4 C2.35 4 0.7 4 -1 4 C-0.67 2.68 -0.34 1.36 0 0 Z " fill="#D7E6F8" transform="translate(262,92)"/>
<path d="M0 0 C2.31 0.66 4.62 1.32 7 2 C6.67 2.66 6.34 3.32 6 4 C2.9375 4.625 2.9375 4.625 0 5 C0 3.35 0 1.7 0 0 Z " fill="#546AE7" transform="translate(288,87)"/>
<path d="M0 0 C0 0.66 0 1.32 0 2 C-1.65 2 -3.3 2 -5 2 C-5 2.66 -5 3.32 -5 4 C-5.99 4 -6.98 4 -8 4 C-8 3.01 -8 2.02 -8 1 C-5.07175348 0.02391783 -3.04386724 -0.08226668 0 0 Z " fill="#C2DFDA" transform="translate(64,40)"/>
<path d="M0 0 C0.66 0 1.32 0 2 0 C2 1.32 2 2.64 2 4 C0.35 4.33 -1.3 4.66 -3 5 C-3.33 4.01 -3.66 3.02 -4 2 C-2.68 2 -1.36 2 0 2 C0 1.34 0 0.68 0 0 Z " fill="#BDCDE0" transform="translate(296,106)"/>
<path d="M0 0 C1.32 0 2.64 0 4 0 C4.66 1.32 5.32 2.64 6 4 C4.02 4 2.04 4 0 4 C0 2.68 0 1.36 0 0 Z " fill="#F5F8F9" transform="translate(288,108)"/>
<path d="M0 0 C1.32 0 2.64 0 4 0 C4.33 1.32 4.66 2.64 5 4 C3.02 4 1.04 4 -1 4 C-0.67 2.68 -0.34 1.36 0 0 Z " fill="#D15B5D" transform="translate(63,108)"/>
<path d="M0 0 C2 3 2 3 3 6 C1.35 5.67 -0.3 5.34 -2 5 C-1.125 1.125 -1.125 1.125 0 0 Z " fill="#4867E0" transform="translate(182,107)"/>
<path d="M0 0 C0.99 0 1.98 0 3 0 C1.86695008 3.39914975 0.87481525 4.05254451 -2 6 C-2.66 5.67 -3.32 5.34 -4 5 C-4 4.34 -4 3.68 -4 3 C-3.01 3 -2.02 3 -1 3 C-0.67 2.01 -0.34 1.02 0 0 Z " fill="#6479F6" transform="translate(168,96)"/>
<path d="M0 0 C0.66 0 1.32 0 2 0 C2 2.64 2 5.28 2 8 C-0.475 7.01 -0.475 7.01 -3 6 C-2.01 5.67 -1.02 5.34 0 5 C0 3.35 0 1.7 0 0 Z " fill="#DEEAFE" transform="translate(223,75)"/>
<path d="M0 0 C1.32 0.33 2.64 0.66 4 1 C4.33 2.65 4.66 4.3 5 6 C4.01 6 3.02 6 2 6 C1.34 4.02 0.68 2.04 0 0 Z " fill="#C7606B" transform="translate(93,69)"/>
<path d="M0 0 C0.33 0 0.66 0 1 0 C1 1.65 1 3.3 1 5 C-0.98 5.33 -2.96 5.66 -5 6 C-3.35830472 3.97945196 -1.69088222 1.97956942 0 0 Z " fill="#D1B5B4" transform="translate(98,115)"/>
<path d="M0 0 C1.32 0.33 2.64 0.66 4 1 C4 1.99 4 2.98 4 4 C2.68 4.33 1.36 4.66 0 5 C0 3.35 0 1.7 0 0 Z " fill="#5972FD" transform="translate(122,98)"/>
<path d="M0 0 C2.97 0.99 5.94 1.98 9 3 C8.34 3.66 7.68 4.32 7 5 C4.69 4.01 2.38 3.02 0 2 C0 1.34 0 0.68 0 0 Z " fill="#647CD9" transform="translate(263,89)"/>
<path d="M0 0 C2 3 2 3 2 5 C3.32 5.66 4.64 6.32 6 7 C2.89448334 7 1.64738916 6.4606285 -1 5 C-0.67 3.35 -0.34 1.7 0 0 Z " fill="#859DD7" transform="translate(114,85)"/>
<path d="M0 0 C0.66 0.33 1.32 0.66 2 1 C2 2.65 2 4.3 2 6 C0.02 6.33 -1.96 6.66 -4 7 C-3.525625 6.5875 -3.05125 6.175 -2.5625 5.75 C-0.83733482 3.817815 -0.43415125 2.51807725 0 0 Z " fill="#4963B4" transform="translate(151,84)"/>
<path d="M0 0 C1.32 0 2.64 0 4 0 C4 1.98 4 3.96 4 6 C3.34 6 2.68 6 2 6 C1.34 4.02 0.68 2.04 0 0 Z " fill="#6A7CF0" transform="translate(124,84)"/>
<path d="M0 0 C0.99 0.33 1.98 0.66 3 1 C0.525 4.465 0.525 4.465 -2 8 C-2.33 6.68 -2.66 5.36 -3 4 C-1.5625 1.75 -1.5625 1.75 0 0 Z " fill="#DDE6F6" transform="translate(214,78)"/>
<path d="M0 0 C0.66 0 1.32 0 2 0 C2 2.64 2 5.28 2 8 C1.34 8 0.68 8 0 8 C-1.09658936 4.71023192 -0.79953138 3.28696233 0 0 Z " fill="#546CC3" transform="translate(137,75)"/>
<path d="M0 0 C0 0.99 0 1.98 0 3 C-2.4375 2.625 -2.4375 2.625 -5 2 C-5.33 1.34 -5.66 0.68 -6 0 C-3.50907189 -1.24546405 -2.58919267 -0.7767578 0 0 Z " fill="#E9F7F9" transform="translate(88,32)"/>
</svg>
